<svg width="141" height="89" viewBox="0 0 141 89" fill="none" xmlns="http://www.w3.org/2000/svg">
<path d="M0 49.9366V44.8936H1.16638V48.9105H3.61046V49.9317H0V49.9366Z" fill="#1B3764"/>
<path d="M7.68575 49.9701C7.30824 49.9701 6.96462 49.8975 6.65972 49.7523C6.35481 49.6071 6.09347 49.4135 5.87084 49.1716C5.64821 48.9296 5.48366 48.6537 5.36266 48.3488C5.24651 48.0439 5.18359 47.7293 5.18359 47.4002C5.18359 47.0663 5.24651 46.7468 5.37234 46.4419C5.49818 46.137 5.67241 45.866 5.89504 45.6289C6.11767 45.3917 6.38385 45.203 6.6936 45.0626C6.9985 44.9271 7.33728 44.8545 7.70026 44.8545C8.07293 44.8545 8.41171 44.9271 8.72145 45.0723C9.02636 45.2175 9.2877 45.4111 9.51033 45.6579C9.72812 45.9047 9.89751 46.1806 10.0185 46.4855C10.1347 46.7904 10.1976 47.1001 10.1976 47.4196C10.1976 47.7535 10.1347 48.0729 10.0137 48.3778C9.89267 48.6827 9.7136 48.9538 9.48613 49.1909C9.25867 49.4281 8.99248 49.6216 8.68757 49.7572C8.38751 49.9024 8.05357 49.9701 7.68575 49.9701ZM6.37417 47.4147C6.37417 47.6083 6.40321 47.7971 6.46129 47.981C6.51937 48.1649 6.60164 48.3246 6.71296 48.4649C6.82427 48.6053 6.96462 48.7215 7.12917 48.8037C7.29373 48.8908 7.48248 48.9296 7.69542 48.9296C7.91805 48.9296 8.11164 48.886 8.2762 48.7989C8.44075 48.7118 8.5811 48.5956 8.68757 48.4456C8.79405 48.2956 8.87632 48.1358 8.9344 47.9519C8.98764 47.768 9.01668 47.5841 9.01668 47.3954C9.01668 47.2018 8.98764 47.013 8.92956 46.8339C8.87149 46.6549 8.78921 46.4903 8.67305 46.35C8.5569 46.2096 8.42139 46.0935 8.252 46.0112C8.08744 45.9289 7.89869 45.8902 7.69059 45.8902C7.46796 45.8902 7.27437 45.9338 7.10981 46.016C6.94526 46.1031 6.80975 46.2145 6.69844 46.3597C6.58712 46.5048 6.50485 46.6694 6.45161 46.8485C6.40321 47.0372 6.37417 47.226 6.37417 47.4147Z" fill="#1B3764"/>
<path d="M15.2883 46.379C15.2738 46.3548 15.2254 46.3161 15.1383 46.2677C15.0512 46.2193 14.9447 46.1661 14.8189 46.108C14.6931 46.0499 14.5527 46.0015 14.3978 45.958C14.2478 45.9144 14.0929 45.895 13.9429 45.895C13.7445 45.895 13.5896 45.9289 13.4831 45.9967C13.3718 46.0644 13.3186 46.1709 13.3186 46.3113C13.3186 46.4226 13.3621 46.5145 13.4444 46.5774C13.5267 46.6452 13.6477 46.6984 13.8025 46.7517C13.9574 46.8001 14.151 46.8581 14.3785 46.9259C14.7027 47.0082 14.9786 47.1147 15.2157 47.2308C15.4529 47.3518 15.632 47.5067 15.7578 47.6906C15.8836 47.8745 15.9466 48.1262 15.9466 48.4359C15.9466 48.7166 15.8933 48.9586 15.7917 49.1522C15.69 49.3458 15.5449 49.5055 15.3706 49.6265C15.1916 49.7475 14.9931 49.8346 14.7657 49.8878C14.5382 49.9411 14.3059 49.9701 14.0639 49.9701C13.8171 49.9701 13.5654 49.9459 13.3089 49.8975C13.0524 49.8491 12.8056 49.7765 12.5684 49.6846C12.3313 49.5926 12.1135 49.4813 11.915 49.3458L12.4281 48.3294C12.4474 48.3536 12.5103 48.3972 12.612 48.4601C12.7136 48.523 12.8443 48.5908 12.9991 48.6585C13.154 48.7263 13.3234 48.7892 13.5122 48.8376C13.7009 48.8908 13.8945 48.915 14.0881 48.915C14.2962 48.915 14.4511 48.8812 14.5527 48.8183C14.6543 48.7553 14.7076 48.6634 14.7076 48.5472C14.7076 48.4214 14.6543 48.3198 14.5479 48.252C14.4414 48.1794 14.2962 48.1165 14.1171 48.0632C13.9332 48.0052 13.7251 47.9423 13.488 47.8745C13.1782 47.7825 12.9265 47.6761 12.7233 47.5551C12.52 47.4389 12.3748 47.2937 12.278 47.1243C12.1812 46.9549 12.1328 46.742 12.1328 46.4903C12.1328 46.137 12.2151 45.8418 12.3845 45.595C12.5539 45.353 12.7765 45.1691 13.0621 45.0432C13.3476 44.9174 13.6573 44.8545 13.9913 44.8545C14.2284 44.8545 14.4559 44.8835 14.6785 44.9416C14.9012 44.9997 15.1044 45.0674 15.298 45.1546C15.4916 45.2417 15.661 45.3239 15.811 45.4111L15.2883 46.379Z" fill="#1B3764"/>
<path d="M125.147 46.0365V48.921H123.98V43.8779H124.905L127.242 46.8447V43.8779H128.409V48.9161H127.46L125.147 46.0365Z" fill="#1B3764"/>
<path d="M131.569 43.8779L132.653 46.1091L133.752 43.8779H135.029L133.234 47.198V48.9161H132.077V47.1883L130.311 43.8828H131.569V43.8779Z" fill="#1B3764"/>
<path d="M136.298 46.3506C136.298 46.0409 136.356 45.7408 136.467 45.4456C136.579 45.1504 136.748 44.8793 136.966 44.6422C137.184 44.4002 137.45 44.2066 137.759 44.0614C138.074 43.9162 138.427 43.8436 138.824 43.8436C139.298 43.8436 139.71 43.9453 140.054 44.1485C140.397 44.3518 140.658 44.618 140.833 44.9423L139.937 45.5666C139.86 45.3875 139.763 45.2472 139.637 45.1455C139.511 45.0439 139.376 44.9761 139.226 44.9374C139.076 44.8987 138.936 44.8793 138.795 44.8793C138.573 44.8793 138.379 44.9229 138.214 45.01C138.05 45.0971 137.909 45.2133 137.803 45.3633C137.692 45.5085 137.614 45.6731 137.561 45.8521C137.508 46.0312 137.484 46.2103 137.484 46.3893C137.484 46.5878 137.513 46.7814 137.576 46.9653C137.638 47.1492 137.726 47.3137 137.842 47.4541C137.958 47.5944 138.098 47.7106 138.263 47.7929C138.427 47.8751 138.611 47.9187 138.81 47.9187C138.95 47.9187 139.095 47.8945 139.245 47.8461C139.39 47.7977 139.526 47.7251 139.652 47.6235C139.778 47.5218 139.874 47.3863 139.937 47.2218L140.891 47.7832C140.789 48.03 140.629 48.2381 140.402 48.4172C140.174 48.5914 139.918 48.7269 139.632 48.8189C139.347 48.9109 139.061 48.9592 138.785 48.9592C138.423 48.9592 138.089 48.8866 137.779 48.7366C137.469 48.5866 137.213 48.3882 136.99 48.1413C136.767 47.8945 136.598 47.6138 136.477 47.3041C136.361 46.9895 136.298 46.67 136.298 46.3506Z" fill="#1B3764"/>
<path d="M66.4548 0V0.425898C66.0289 0.440417 65.7047 0.493655 65.4821 0.58561C65.2594 0.677565 65.1142 0.846957 65.0465 1.09862C64.9739 1.34545 64.94 1.73747 64.94 2.26016V12.8399C64.94 13.3529 64.9787 13.7352 65.0562 13.9917C65.1336 14.2482 65.2788 14.4176 65.4917 14.5047C65.7047 14.5919 66.0241 14.6451 66.45 14.6741V15.1C66.0096 15.071 65.4482 15.0516 64.7658 15.0468C64.0834 15.0419 63.3864 15.0371 62.675 15.0371C61.9055 15.0371 61.1844 15.0419 60.5116 15.0468C59.8341 15.0565 59.292 15.071 58.8806 15.1V14.6741C59.3646 14.6451 59.7324 14.587 59.9793 14.5047C60.2261 14.4176 60.3955 14.2482 60.4826 13.9917C60.5697 13.7352 60.6084 13.3529 60.6084 12.8399V1.42773L60.8214 1.38417L55.4686 15.0807H55.125L49.1092 1.38417V10.9185C49.1092 11.8719 49.1479 12.6027 49.2253 13.106C49.3028 13.6094 49.4964 13.9724 49.8013 14.195C50.1062 14.4176 50.595 14.5773 51.2629 14.6741V15.1C50.9773 15.071 50.6095 15.0516 50.1546 15.0468C49.6996 15.0419 49.2737 15.0371 48.8769 15.0371C48.5623 15.0371 48.2429 15.0419 47.9186 15.0468C47.5895 15.0565 47.3233 15.071 47.1104 15.1V14.6741C47.5508 14.5725 47.8799 14.4225 48.0928 14.2144C48.3058 14.0062 48.4461 13.6771 48.5187 13.2222C48.5913 12.7673 48.6252 12.1429 48.6252 11.3444V2.26016C48.6252 1.73263 48.5913 1.34545 48.5187 1.09862C48.4461 0.851796 48.3009 0.677565 48.0831 0.58561C47.8605 0.493655 47.5411 0.440417 47.1104 0.425898V0C47.3233 0.0145193 47.5943 0.0290385 47.9186 0.0435578C48.2477 0.058077 48.5671 0.0629168 48.8769 0.0629168C49.6996 0.0629168 50.4885 0.058077 51.2435 0.0435578C51.9985 0.0290385 52.6809 0.0145193 53.2907 0L57.5158 9.51495L56.877 10.2167L60.8214 0.0629168C61.1069 0.0629168 61.4118 0.0629168 61.7409 0.0629168C62.07 0.0629168 62.3798 0.0629168 62.6798 0.0629168C63.3913 0.0629168 64.0882 0.058077 64.7706 0.0435578C65.453 0.0290385 66.0144 0.0145193 66.4548 0Z" fill="#1B3764"/>
<path d="M90.2376 0C90.1795 0.711444 90.1408 1.39869 90.1215 2.05689C90.1021 2.71994 90.0876 3.22811 90.0876 3.58142C90.0876 3.88148 90.0924 4.16703 90.1069 4.43321C90.1214 4.70424 90.136 4.93171 90.1505 5.11562H89.6617C89.4923 3.93472 89.2067 3.00549 88.8099 2.33276C88.413 1.6552 87.9436 1.1809 87.4112 0.905034C86.8788 0.629168 86.3174 0.488815 85.7366 0.488815H85.4608C85.0929 0.488815 84.8122 0.522693 84.6283 0.58561C84.4444 0.648527 84.3186 0.77436 84.2557 0.958271C84.1928 1.14218 84.1589 1.43257 84.1589 1.83427V13.2706C84.1589 13.6529 84.1928 13.9433 84.2557 14.1369C84.3186 14.3305 84.4444 14.4563 84.6283 14.5193C84.8122 14.5822 85.0881 14.6161 85.4608 14.6161H86.1674C86.6368 14.6161 87.1305 14.4612 87.6483 14.1563C88.1662 13.8514 88.6453 13.3287 89.0857 12.5882C89.5262 11.8477 89.8601 10.841 90.0876 9.55851H90.5764C90.5328 10.0715 90.5135 10.7249 90.5135 11.5234C90.5135 11.8768 90.5183 12.3898 90.5328 13.048C90.5473 13.711 90.5909 14.3934 90.6587 15.1049C89.9327 15.0758 89.1148 15.0565 88.2049 15.0516C87.295 15.0468 86.482 15.0419 85.7705 15.0419C85.2575 15.0419 84.5703 15.0419 83.7136 15.0419C82.8521 15.0419 81.9423 15.0468 80.984 15.0516C80.0257 15.0613 79.1304 15.0758 78.3076 15.1049V14.679C78.748 14.6499 79.0771 14.5919 79.2901 14.5096C79.503 14.4273 79.6434 14.2531 79.716 13.9966C79.7886 13.7401 79.8225 13.3577 79.8225 12.8447V2.26016C79.8225 1.73263 79.7886 1.34545 79.716 1.09862C79.6434 0.851796 79.4982 0.677565 79.2804 0.58561C79.0578 0.493655 78.7384 0.440417 78.3125 0.425898V0C79.1352 0.0145193 80.0306 0.0290385 80.9888 0.0435578C81.9471 0.058077 82.857 0.0629168 83.7185 0.0629168C84.5799 0.0629168 85.2672 0.0629168 85.7754 0.0629168C86.4287 0.0629168 87.174 0.058077 88.0065 0.0532373C88.8438 0.0483975 89.5842 0.0290385 90.2376 0ZM87.145 7.29351V7.7194H83.52V7.29351H87.145ZM87.7645 4.48161C87.7064 5.28985 87.6822 5.90934 87.6919 6.33524C87.6967 6.76113 87.7016 7.15315 87.7016 7.50646C87.7016 7.85976 87.7064 8.25178 87.7209 8.67768C87.7355 9.10357 87.7693 9.72306 87.8274 10.5313H87.3386C87.2515 10.0038 87.0772 9.52947 86.8159 9.10357C86.5546 8.67768 86.2158 8.33889 85.8044 8.09206C85.393 7.84524 84.9139 7.7194 84.3767 7.7194V7.29351C84.9187 7.29351 85.3882 7.14347 85.785 6.84341C86.1819 6.54334 86.511 6.18036 86.7675 5.74479C87.024 5.30921 87.1934 4.88815 87.2805 4.47677H87.7645V4.48161Z" fill="#1B3764"/>
<path d="M44.4918 36.2063C45.4888 36.2063 46.3067 36.3418 46.9456 36.6128C47.5844 36.8839 48.1459 37.2081 48.6298 37.5953C48.7847 37.7211 48.9299 37.7889 49.0557 37.7889C49.3268 37.7889 49.501 37.363 49.5881 36.5112H50.0769C50.0479 37.0823 50.0285 37.7744 50.014 38.5923C49.9995 39.4102 49.9946 40.4943 49.9946 41.8446H49.5058C49.4042 40.8186 49.23 39.9619 48.9831 39.2747C48.7363 38.5875 48.2523 37.997 47.5409 37.513C47.2408 37.3146 46.8924 37.1597 46.4955 37.0436C46.0986 36.9323 45.7115 36.8742 45.3436 36.8742C44.516 36.8742 43.8336 37.0968 43.2964 37.5469C42.7544 37.997 42.3236 38.5778 42.0042 39.2941C41.6848 40.0103 41.4573 40.7944 41.3218 41.6413C41.1863 42.4883 41.1185 43.3111 41.1185 44.1048C41.1185 46.665 41.4331 48.5331 42.0574 49.714C42.6818 50.8949 43.5142 51.4854 44.5548 51.4854C44.7822 51.4854 44.9807 51.466 45.15 51.4225C45.3194 51.3789 45.4695 51.316 45.6001 51.2289C45.755 51.1176 45.8712 50.9724 45.9438 50.803C46.0164 50.6336 46.0502 50.4207 46.0502 50.1641V48.0298C46.0502 47.3329 45.997 46.815 45.8905 46.4714C45.7841 46.1278 45.5759 45.8955 45.2614 45.7696C44.9468 45.6438 44.4918 45.5712 43.8966 45.5567V45.1308C44.2257 45.1453 44.6225 45.155 45.092 45.1647C45.5614 45.1744 46.0502 45.1792 46.5633 45.184C47.0763 45.1937 47.5457 45.1937 47.9716 45.1937C48.654 45.1937 49.2832 45.1889 49.8591 45.1744C50.4351 45.1598 50.8997 45.1453 51.2578 45.1308V45.5567C50.8997 45.5857 50.6674 45.6971 50.5512 45.9003C50.4351 46.0988 50.3818 46.5972 50.3818 47.3958V51.6209H49.9559C49.9414 51.3789 49.8833 51.1176 49.7865 50.832C49.6849 50.5465 49.5252 50.4061 49.2977 50.4061C49.1816 50.4061 49.0219 50.4352 48.8186 50.4932C48.6105 50.5513 48.2862 50.6868 47.8458 50.8998C47.2892 51.1708 46.7036 51.408 46.0841 51.6161C45.4646 51.8242 44.85 51.9258 44.2402 51.9258C41.5638 51.9258 39.5601 51.2483 38.2244 49.8883C36.8886 48.5283 36.2207 46.636 36.2207 44.2016C36.2207 42.6093 36.574 41.2154 37.2758 40.02C37.9824 38.8246 38.9552 37.8954 40.199 37.2275C41.438 36.5402 42.8705 36.2063 44.4918 36.2063Z" fill="#1B3764"/>
<path d="M70.4761 36.5058L75.6401 49.8151C75.8386 50.2991 76.0515 50.6427 76.279 50.8508C76.5065 51.059 76.7146 51.1654 76.8985 51.1799V51.6058C76.3855 51.5768 75.7902 51.5574 75.1078 51.5526C74.4254 51.5478 73.7284 51.5429 73.017 51.5429C72.291 51.5429 71.6086 51.5478 70.9698 51.5526C70.3309 51.5623 69.8179 51.5768 69.4356 51.6058V51.1799C70.1615 51.1509 70.6213 51.0251 70.8101 50.8073C71.0037 50.5847 70.9553 50.1152 70.6697 49.3892L67.2577 39.9372L67.6836 39.1919L64.741 46.8484C64.2716 48.0728 64.0393 48.9875 64.0489 49.6022C64.0538 50.212 64.2377 50.6234 64.591 50.8266C64.9443 51.0348 65.4089 51.1509 65.9752 51.1799V51.6058C65.4476 51.5768 64.9782 51.5574 64.5571 51.5526C64.1361 51.5478 63.6811 51.5429 63.1826 51.5429C62.9116 51.5429 62.6261 51.5478 62.3163 51.5526C62.0114 51.5623 61.7501 51.5768 61.5371 51.6058V51.1799C61.8662 51.1219 62.1856 50.9138 62.5099 50.5508C62.8293 50.1878 63.1584 49.5683 63.5021 48.6826L68.2402 36.501C68.5838 36.53 68.9564 36.5445 69.3581 36.5445C69.7598 36.5494 70.1325 36.5349 70.4761 36.5058ZM71.2215 45.4642V45.8901H64.862L65.075 45.4642H71.2215Z" fill="#1B3764"/>
<path d="M102.089 36.5059V36.9318C101.663 37.0189 101.339 37.1641 101.116 37.3819C100.894 37.5948 100.749 37.9239 100.681 38.374C100.608 38.8241 100.574 39.4533 100.574 40.2615V51.6107C100.361 51.5817 100.129 51.5672 99.8822 51.5672C99.6354 51.5672 99.3644 51.5817 99.0837 51.6107L89.6316 41.2827V47.4292C89.6316 48.3826 89.6703 49.1134 89.7478 49.6167C89.8252 50.1201 90.0188 50.4831 90.3237 50.7057C90.6286 50.9283 91.1174 51.088 91.7853 51.1848V51.6107C91.4998 51.5817 91.1319 51.5623 90.677 51.5575C90.2221 51.5526 89.7962 51.5478 89.3993 51.5478C89.0847 51.5478 88.7653 51.5526 88.4411 51.5575C88.1119 51.5672 87.8458 51.5817 87.6328 51.6107V51.1848C88.0732 51.0832 88.4023 50.9332 88.6153 50.725C88.8282 50.5169 88.9686 50.1878 89.0412 49.7329C89.1138 49.278 89.1476 48.6536 89.1476 47.8551V38.766C89.1476 38.2385 89.1138 37.8513 89.0412 37.6045C88.9686 37.3577 88.8234 37.1834 88.6056 37.0915C88.383 36.9995 88.0636 36.9463 87.6328 36.9318V36.5059C87.8458 36.5204 88.1168 36.5349 88.4411 36.5494C88.7702 36.5639 89.0896 36.5688 89.3993 36.5688C89.7526 36.5688 90.1059 36.5639 90.4447 36.5494C90.7883 36.5349 91.0932 36.5204 91.3643 36.5059L100.09 45.7207V40.6874C100.09 39.734 100.052 39.008 99.9742 38.4998C99.8967 37.9965 99.708 37.6287 99.4079 37.4012C99.1079 37.1737 98.619 37.0189 97.9366 36.9318V36.5059C98.2222 36.5204 98.59 36.5349 99.0449 36.5494C99.4999 36.5639 99.9258 36.5688 100.323 36.5688C100.652 36.5688 100.971 36.5639 101.291 36.5494C101.61 36.5349 101.876 36.5204 102.089 36.5059Z" fill="#1B3764"/>
<path d="M47.3084 84.749C47.9763 84.749 48.4941 84.9039 48.8668 85.2088C49.2346 85.5137 49.4233 85.9735 49.4233 86.5833C49.4233 87.1931 49.2394 87.6529 48.8668 87.9578C48.499 88.2627 47.9763 88.4176 47.3084 88.4176C46.626 88.4176 46.1033 88.2627 45.7403 87.9578C45.3773 87.6529 45.1982 87.1931 45.1982 86.5833C45.1982 85.9735 45.3773 85.5137 45.7403 85.2088C46.1033 84.8991 46.626 84.749 47.3084 84.749Z" fill="#1B3764"/>
<path d="M68.9374 73.0126V73.4385C68.5115 73.453 68.1873 73.5062 67.9646 73.5982C67.742 73.6901 67.5968 73.8595 67.5291 74.1112C67.4565 74.358 67.4226 74.75 67.4226 75.2727V85.8524C67.4226 86.3654 67.4613 86.7478 67.5387 87.0043C67.6162 87.2608 67.7614 87.4302 67.9743 87.5173C68.1873 87.6044 68.5067 87.6577 68.9326 87.6867V88.1126C68.5212 88.0836 67.9888 88.0642 67.3452 88.0594C66.6966 88.0545 66.0384 88.0497 65.3705 88.0497C64.601 88.0497 63.8799 88.0545 63.2072 88.0594C62.5296 88.069 61.9876 88.0836 61.5762 88.1126V87.6867C62.0166 87.6577 62.3457 87.5996 62.5586 87.5173C62.7716 87.435 62.9119 87.2608 62.9845 87.0043C63.0571 86.7478 63.091 86.3654 63.091 85.8524V75.2727C63.091 74.7452 63.0571 74.358 62.9845 74.1112C62.9119 73.8644 62.7668 73.6901 62.549 73.5982C62.3263 73.5062 62.0069 73.453 61.581 73.4385V73.0126C61.9924 73.0271 62.5393 73.0416 63.212 73.0561C63.8896 73.0706 64.6107 73.0755 65.3754 73.0755C66.0433 73.0755 66.7015 73.0706 67.35 73.0561C67.9985 73.0416 68.5261 73.0271 68.9374 73.0126ZM76.744 73.0126V73.4191C76.26 73.5449 75.7228 73.7821 75.1323 74.1209C74.5419 74.4645 73.9127 75.0114 73.2448 75.7615L69.3198 80.219L71.0476 77.9588L76.1051 86.3848C76.289 86.6849 76.4729 86.9317 76.6617 87.1301C76.8456 87.3286 77.0973 87.5125 77.407 87.6867V88.1126C76.8117 88.0836 76.1729 88.0642 75.5001 88.0594C74.8226 88.0545 74.1789 88.0497 73.5691 88.0497C73.24 88.0497 72.8383 88.0545 72.3543 88.0594C71.8703 88.069 71.2605 88.0836 70.52 88.1126V87.6867C71.1879 87.6577 71.5751 87.5802 71.6816 87.4544C71.788 87.3286 71.7348 87.0866 71.5219 86.7284L68.4293 81.5015C68.2889 81.245 68.1582 81.0514 68.0469 80.9256C67.9308 80.7997 67.8243 80.7029 67.7178 80.6497C67.6113 80.5916 67.471 80.5577 67.3016 80.5432V80.0931C67.9259 80.0641 68.5164 79.856 69.0729 79.464C69.6295 79.0719 70.2974 78.4379 71.0766 77.5571L71.8026 76.744C72.3979 76.0761 72.7173 75.4954 72.7512 75.0065C72.785 74.5177 72.635 74.1306 72.3011 73.8547C71.9671 73.5788 71.5315 73.4336 70.9895 73.4191V73.0126C71.5848 73.0271 72.1365 73.0416 72.6447 73.0561C73.148 73.0706 73.8014 73.0755 74.5951 73.0755C75.4614 73.0803 76.1777 73.0561 76.744 73.0126Z" fill="#1B3764"/>
<path d="M90.741 84.749C91.4089 84.749 91.9267 84.9039 92.2994 85.2088C92.6672 85.5137 92.856 85.9735 92.856 86.5833C92.856 87.1931 92.6721 87.6529 92.2994 87.9578C91.9316 88.2627 91.4089 88.4176 90.741 88.4176C90.0586 88.4176 89.5359 88.2627 89.1729 87.9578C88.8099 87.6529 88.6309 87.1931 88.6309 86.5833C88.6309 85.9735 88.8099 85.5137 89.1729 85.2088C89.5359 84.8991 90.0586 84.749 90.741 84.749Z" fill="#1B3764"/>
<path d="M36.7634 11.5642L10.8613 34.9336L11.834 36.0116L37.736 12.6422L36.7634 11.5642Z" fill="#1B3764"/>
<path d="M101.738 11.5613L100.766 12.6395L126.671 36.0055L127.644 34.9273L101.738 11.5613Z" fill="#1B3764"/>
<path d="M12.3416 57.7872L11.3691 58.8654L37.2747 82.2313L38.2472 81.1531L12.3416 57.7872Z" fill="#1B3764"/>
<path d="M127.177 57.7829L101.275 81.1523L102.248 82.2304L128.15 58.861L127.177 57.7829Z" fill="#1B3764"/>
</svg>
