<svg width="189" height="76" viewBox="0 0 189 76" fill="none" xmlns="http://www.w3.org/2000/svg">
<path d="M16.073 30.1515V30.5049C15.7196 30.5149 15.4521 30.5604 15.2653 30.6361C15.0836 30.7118 14.9624 30.8532 14.9018 31.0601C14.8412 31.2671 14.811 31.5902 14.811 32.0243V40.813C14.811 41.237 14.8412 41.555 14.9069 41.7721C14.9725 41.9841 15.0936 42.1254 15.2703 42.1961C15.447 42.2668 15.7146 42.3122 16.0679 42.3375V42.6908C15.6994 42.6656 15.235 42.6504 14.6696 42.6454C14.1042 42.6403 13.5237 42.6353 12.9331 42.6353C12.297 42.6353 11.6963 42.6403 11.136 42.6454C10.5757 42.6504 10.1213 42.6656 9.77806 42.6908V42.3375C10.1819 42.3122 10.4848 42.2668 10.6918 42.1961C10.8987 42.1254 11.035 41.9841 11.1107 41.7721C11.1814 41.5601 11.2168 41.242 11.2168 40.813V31.3378L11.3934 31.3024L6.94611 42.6807H6.66342L1.66585 31.3024V39.2279C1.66585 40.0204 1.69614 40.6262 1.76177 41.0452C1.82739 41.4642 1.98388 41.767 2.24133 41.9488C2.49373 42.1305 2.89758 42.2668 3.45286 42.3476V42.7009C3.2156 42.6757 2.90767 42.6605 2.52907 42.6555C2.15047 42.6504 1.7971 42.6454 1.46393 42.6454C1.20143 42.6454 0.938936 42.6504 0.666342 42.6555C0.403843 42.6605 0.176682 42.6757 0 42.7009V42.3476C0.368507 42.2668 0.636053 42.1355 0.812735 41.969C0.989416 41.7973 1.10552 41.5247 1.1661 41.1461C1.22667 40.7675 1.25696 40.2476 1.25696 39.5863V32.0294C1.25696 31.5902 1.22667 31.2722 1.1661 31.0652C1.10552 30.8582 0.984368 30.7169 0.802639 30.6411C0.620909 30.5654 0.353363 30.52 0 30.5049V30.1515C0.176682 30.1616 0.403843 30.1767 0.67139 30.1868C0.943984 30.1969 1.20648 30.207 1.46898 30.207C2.15551 30.207 2.81176 30.202 3.43772 30.1868C4.06367 30.1767 4.62906 30.1616 5.13891 30.1515L8.6473 38.0567L8.11725 38.6423L11.3934 30.207C11.6307 30.207 11.8831 30.207 12.1557 30.207C12.4283 30.207 12.6857 30.207 12.9331 30.207C13.5237 30.207 14.1042 30.202 14.6696 30.1868C15.24 30.1767 15.7095 30.1616 16.073 30.1515Z" fill="#1B3764"/>
<path d="M28.7431 30.1515C28.6977 30.7421 28.6624 31.3125 28.6472 31.8628C28.627 32.413 28.622 32.837 28.622 33.1298C28.622 33.3772 28.627 33.6144 28.6371 33.8366C28.6472 34.0637 28.6624 34.2505 28.6725 34.4019H28.2686C28.1273 33.4226 27.89 32.6503 27.5619 32.0899C27.2287 31.5296 26.8451 31.1308 26.4008 30.9036C25.9566 30.6714 25.4922 30.5604 25.0076 30.5604H24.7754C24.4674 30.5604 24.2403 30.5856 24.0838 30.6411C23.9323 30.6916 23.8263 30.7976 23.7759 30.9491C23.7254 31.1005 23.6951 31.3428 23.6951 31.676V41.1764C23.6951 41.4944 23.7203 41.7367 23.7759 41.8932C23.8314 42.0548 23.9323 42.1608 24.0838 42.2113C24.2352 42.2668 24.4674 42.292 24.7754 42.292H25.3609C25.7496 42.292 26.1636 42.1658 26.5927 41.9134C27.0217 41.661 27.4205 41.2269 27.789 40.611C28.1576 39.9952 28.4352 39.1572 28.622 38.0921H29.0309C28.9955 38.5161 28.9804 39.0613 28.9804 39.7226C28.9804 40.0204 28.9854 40.4394 28.9955 40.9896C29.0056 41.5399 29.041 42.1103 29.1015 42.7009C28.5008 42.6757 27.8193 42.6605 27.0621 42.6555C26.3049 42.6504 25.6335 42.6454 25.0429 42.6454C24.6189 42.6454 24.0484 42.6454 23.3316 42.6454C22.6148 42.6454 21.8626 42.6504 21.0651 42.6555C20.2675 42.6605 19.5254 42.6757 18.8389 42.7009V42.3476C19.2074 42.3223 19.4749 42.2769 19.6566 42.2062C19.8333 42.1355 19.9494 41.9942 20.01 41.7822C20.0706 41.5702 20.1009 41.2521 20.1009 40.8231V32.0294C20.1009 31.5902 20.0706 31.2722 20.01 31.0652C19.9494 30.8582 19.8283 30.7169 19.6466 30.6411C19.4648 30.5654 19.1922 30.52 18.8389 30.5099V30.1565C19.5254 30.1666 20.2675 30.1818 21.0651 30.1919C21.8626 30.202 22.6199 30.2121 23.3316 30.2121C24.0484 30.2121 24.6138 30.2121 25.0429 30.2121C25.5881 30.2121 26.204 30.207 26.8955 30.202C27.5821 30.1919 28.203 30.1767 28.7431 30.1515ZM26.1737 36.2142V36.5676H23.16V36.2142H26.1737ZM26.6886 33.8719C26.6431 34.5433 26.6179 35.0582 26.628 35.4115C26.633 35.7649 26.6381 36.093 26.6381 36.3858C26.6381 36.6837 26.6431 37.0067 26.6583 37.3601C26.6684 37.7135 26.6987 38.2284 26.7492 38.8997H26.3403C26.2696 38.4606 26.1232 38.0668 25.9061 37.7135C25.6891 37.3601 25.4064 37.0774 25.0631 36.8704C24.7198 36.6635 24.3261 36.5625 23.8768 36.5625V36.2091C24.3261 36.2091 24.7148 36.0829 25.048 35.8356C25.3761 35.5882 25.6487 35.2853 25.8607 34.9219C26.0727 34.5635 26.2141 34.2101 26.2847 33.8668H26.6886V33.8719Z" fill="#1B3764"/>
<path d="M39.1481 29.9043C39.9759 29.9043 40.6524 30.0154 41.1875 30.2425C41.7175 30.4646 42.187 30.7372 42.5858 31.0553C42.717 31.1613 42.8331 31.2168 42.9391 31.2168C43.1613 31.2168 43.3127 30.8634 43.3834 30.1517H43.7923C43.767 30.6262 43.7519 31.2016 43.7367 31.8781C43.7266 32.5596 43.7165 33.4581 43.7165 34.5788H43.3127C43.2319 33.7257 43.0855 33.0189 42.8786 32.4435C42.6716 31.873 42.2728 31.3834 41.6822 30.9795C41.4348 30.8129 41.142 30.6867 40.8139 30.5908C40.4807 30.4949 40.1627 30.4495 39.8548 30.4495C39.1683 30.4495 38.6029 30.6363 38.1536 31.0098C37.7043 31.3834 37.3459 31.868 37.0834 32.4637C36.8159 33.0593 36.6291 33.7105 36.518 34.4122C36.4019 35.1189 36.3464 35.8004 36.3464 36.4617C36.3464 38.5869 36.6038 40.1417 37.1238 41.121C37.6437 42.1004 38.3353 42.59 39.1985 42.59C39.3853 42.59 39.5519 42.5698 39.6932 42.5345C39.8346 42.4992 39.9608 42.4487 40.0668 42.373C40.1981 42.2771 40.2889 42.1609 40.3495 42.0196C40.4101 41.8783 40.4404 41.7016 40.4404 41.4896V39.7177C40.4404 39.1372 40.3949 38.7081 40.3091 38.4254C40.2182 38.1427 40.0466 37.9458 39.7841 37.8398C39.5216 37.7338 39.1481 37.6732 38.6483 37.6631V37.3098C38.9209 37.3199 39.249 37.33 39.6428 37.335C40.0315 37.3401 40.4404 37.3451 40.8644 37.3552C41.2884 37.3603 41.6822 37.3653 42.0355 37.3653C42.6009 37.3653 43.1259 37.3603 43.6055 37.3451C44.085 37.335 44.4687 37.3199 44.7665 37.3098V37.6631C44.4737 37.6884 44.2769 37.7792 44.181 37.9458C44.085 38.1124 44.0396 38.5264 44.0396 39.1876V42.696H43.6863C43.6762 42.4941 43.6257 42.277 43.5449 42.0398C43.4641 41.8025 43.3278 41.6864 43.136 41.6864C43.0401 41.6864 42.9089 41.7117 42.7372 41.7571C42.5656 41.8025 42.298 41.9186 41.9295 42.0953C41.4702 42.3174 40.9805 42.5194 40.4656 42.691C39.9507 42.8626 39.4408 42.9484 38.931 42.9484C36.7099 42.9484 35.044 42.3831 33.9334 41.2573C32.8229 40.1316 32.2676 38.5566 32.2676 36.5324C32.2676 35.2098 32.5604 34.0487 33.1459 33.0593C33.7315 32.0649 34.5392 31.2925 35.574 30.7372C36.6089 30.1819 37.8002 29.9043 39.1481 29.9043Z" fill="#1B3764"/>
<path d="M53.6452 30.1515L57.9361 41.2117C58.1027 41.6156 58.2793 41.8983 58.4661 42.0699C58.6529 42.2416 58.8245 42.3324 58.981 42.3425V42.6959C58.557 42.6706 58.0572 42.6555 57.4918 42.6504C56.9265 42.6454 56.3459 42.6403 55.7553 42.6403C55.1546 42.6403 54.5842 42.6454 54.0541 42.6504C53.5241 42.6555 53.095 42.6706 52.777 42.6959V42.3425C53.3777 42.3173 53.7613 42.2163 53.9178 42.0346C54.0794 41.8529 54.039 41.4591 53.8017 40.8584L50.9647 33.0087L51.3181 32.3878L48.8748 38.7483C48.4861 39.763 48.2943 40.5252 48.2994 41.0351C48.3044 41.5449 48.4558 41.8831 48.7537 42.0548C49.0465 42.2264 49.4352 42.3223 49.9046 42.3476V42.7009C49.4655 42.6757 49.0768 42.6605 48.7284 42.6555C48.3801 42.6504 47.9965 42.6454 47.5876 42.6454C47.3655 42.6454 47.1232 42.6504 46.8708 42.6555C46.6184 42.6605 46.4013 42.6757 46.2246 42.7009V42.3476C46.4972 42.3021 46.7647 42.1254 47.0323 41.8226C47.2998 41.5197 47.5724 41.0048 47.8551 40.2728L51.7876 30.1515C52.0702 30.1767 52.3832 30.1868 52.7164 30.1868C53.0496 30.1868 53.3625 30.1767 53.6452 30.1515ZM54.2661 37.5974V37.9507H48.9859L49.1626 37.5974H54.2661Z" fill="#1B3764"/>
<path d="M72.8186 30.1515V30.5049C72.4652 30.5755 72.1976 30.7017 72.0109 30.8784C71.8291 31.0551 71.708 31.3327 71.6474 31.7012C71.5868 32.0748 71.5565 32.5947 71.5565 33.2712V42.7009C71.3799 42.6757 71.188 42.6656 70.9811 42.6656C70.7741 42.6656 70.552 42.6757 70.3147 42.7009L62.465 34.1243V39.2279C62.465 40.0204 62.4953 40.6262 62.5609 41.0452C62.6266 41.4642 62.783 41.767 63.0405 41.9488C63.2929 42.1305 63.6967 42.2668 64.252 42.3476V42.7009C64.0148 42.6757 63.7068 42.6605 63.3282 42.6555C62.9496 42.6504 62.5963 42.6454 62.2631 42.6454C62.0006 42.6454 61.7381 42.6504 61.4655 42.6555C61.1929 42.6605 60.9708 42.6757 60.7941 42.7009V42.3476C61.1626 42.2668 61.4302 42.1355 61.6068 41.969C61.7835 41.7973 61.8996 41.5247 61.9602 41.1461C62.0208 40.7675 62.0511 40.2476 62.0511 39.5863V32.0294C62.0511 31.5902 62.0208 31.2722 61.9602 31.0652C61.8996 30.8582 61.7785 30.7169 61.5967 30.6411C61.415 30.5654 61.1424 30.52 60.7891 30.5099V30.1565C60.9657 30.1666 61.1929 30.1818 61.4605 30.1919C61.733 30.202 61.9955 30.2121 62.258 30.2121C62.5508 30.2121 62.8436 30.207 63.1263 30.1919C63.409 30.1818 63.6614 30.1666 63.8886 30.1565L71.1376 37.8144V33.6245C71.1376 32.832 71.1073 32.2262 71.0416 31.8072C70.976 31.3883 70.8195 31.0854 70.5722 30.8936C70.3248 30.7068 69.9159 30.5755 69.3505 30.5049V30.1515C69.5878 30.1616 69.8957 30.1767 70.2743 30.1868C70.6529 30.1969 71.0063 30.207 71.3395 30.207C71.6121 30.207 71.8796 30.202 72.1472 30.1868C72.4198 30.1767 72.6419 30.1616 72.8186 30.1515Z" fill="#1B3764"/>
<path d="M116.998 30.1515C117.342 30.1616 117.791 30.1767 118.356 30.1868C118.917 30.1969 119.482 30.207 120.047 30.207C120.638 30.207 121.203 30.202 121.749 30.1868C122.294 30.1767 122.677 30.1666 122.9 30.1666C124.52 30.1666 125.721 30.4291 126.514 30.944C127.306 31.464 127.7 32.1303 127.7 32.9481C127.7 33.362 127.554 33.7911 127.256 34.2354C126.963 34.6796 126.514 35.0683 125.908 35.4065C125.307 35.7447 124.54 35.9719 123.606 36.088V36.1233C124.823 36.1839 125.797 36.3707 126.529 36.6887C127.261 37.0067 127.791 37.3954 128.124 37.8498C128.457 38.3041 128.619 38.7735 128.619 39.2582C128.619 40.4394 128.144 41.3077 127.2 41.8629C126.256 42.4182 124.954 42.6959 123.303 42.6959C123.021 42.6959 122.602 42.6858 122.051 42.6706C121.501 42.6504 120.845 42.6454 120.078 42.6454C119.487 42.6454 118.912 42.6504 118.351 42.6555C117.791 42.6605 117.337 42.6757 116.993 42.7009V42.3476C117.357 42.3223 117.629 42.2769 117.806 42.2062C117.983 42.1355 118.099 41.9942 118.159 41.7822C118.22 41.5702 118.25 41.2521 118.25 40.8231V32.0294C118.25 31.5902 118.22 31.2722 118.159 31.0652C118.099 30.8582 117.978 30.7169 117.796 30.6411C117.614 30.5654 117.347 30.52 116.988 30.5099V30.1515H116.998ZM122.814 30.5049C122.41 30.5049 122.152 30.6058 122.036 30.8077C121.92 31.0097 121.86 31.4185 121.86 32.0294V40.818C121.86 41.4339 121.935 41.8327 122.082 42.0144C122.228 42.1961 122.541 42.287 123.011 42.287C123.672 42.287 124.151 42.0194 124.454 41.4793C124.757 40.9442 124.909 40.1769 124.909 39.1824C124.909 38.2738 124.692 37.5721 124.263 37.0724C123.833 36.5776 123.112 36.3303 122.107 36.3303H120.815V36.0274H122.339C122.799 36.0274 123.157 35.8962 123.404 35.6286C123.652 35.3611 123.823 35.0077 123.919 34.5635C124.015 34.1192 124.061 33.6447 124.061 33.1349C124.061 32.2616 123.965 31.6003 123.778 31.1611C123.581 30.727 123.263 30.5049 122.814 30.5049Z" fill="#1B3764"/>
<path d="M138.089 29.9043C139.422 29.9043 140.593 30.1567 141.598 30.6666C142.602 31.1764 143.38 31.9033 143.935 32.8574C144.49 33.8064 144.768 34.9624 144.768 36.3204C144.768 37.6429 144.485 38.804 143.92 39.7934C143.354 40.7879 142.562 41.5602 141.552 42.1155C140.543 42.6708 139.382 42.9484 138.069 42.9484C136.737 42.9484 135.565 42.696 134.561 42.1862C133.556 41.6763 132.779 40.9444 132.224 39.9903C131.668 39.0312 131.391 37.8802 131.391 36.5324C131.391 35.2098 131.678 34.0487 132.249 33.0593C132.819 32.0649 133.612 31.2925 134.616 30.7372C135.621 30.1819 136.777 29.9043 138.089 29.9043ZM138.019 30.2223C137.428 30.2223 136.913 30.4899 136.479 31.0199C136.04 31.55 135.707 32.2819 135.469 33.2158C135.232 34.1497 135.116 35.23 135.116 36.4567C135.116 37.7086 135.252 38.799 135.525 39.7278C135.798 40.6566 136.161 41.3684 136.625 41.8732C137.085 42.378 137.595 42.6254 138.15 42.6254C138.741 42.6254 139.255 42.3578 139.69 41.8278C140.129 41.2977 140.462 40.5607 140.699 39.6218C140.936 38.6828 141.053 37.6026 141.053 36.386C141.053 35.124 140.916 34.0285 140.644 33.1098C140.371 32.186 140.008 31.4742 139.543 30.9745C139.084 30.4747 138.574 30.2223 138.019 30.2223Z" fill="#1B3764"/>
<path d="M154.52 29.9043C155.853 29.9043 157.024 30.1567 158.028 30.6666C159.033 31.1764 159.81 31.9033 160.366 32.8574C160.921 33.8064 161.199 34.9624 161.199 36.3204C161.199 37.6429 160.916 38.804 160.351 39.7934C159.785 40.7879 158.993 41.5602 157.983 42.1155C156.973 42.6708 155.812 42.9484 154.5 42.9484C153.167 42.9484 151.996 42.696 150.991 42.1862C149.987 41.6763 149.21 40.9444 148.654 39.9903C148.099 39.0312 147.821 37.8802 147.821 36.5324C147.821 35.2098 148.109 34.0487 148.679 33.0593C149.25 32.0649 150.042 31.2925 151.047 30.7372C152.047 30.1819 153.208 29.9043 154.52 29.9043ZM154.444 30.2223C153.854 30.2223 153.339 30.4899 152.905 31.0199C152.465 31.55 152.132 32.2819 151.895 33.2158C151.658 34.1497 151.542 35.23 151.542 36.4567C151.542 37.7086 151.678 38.799 151.951 39.7278C152.223 40.6566 152.587 41.3684 153.051 41.8732C153.51 42.378 154.02 42.6254 154.576 42.6254C155.166 42.6254 155.681 42.3578 156.115 41.8278C156.554 41.2977 156.888 40.5607 157.125 39.6218C157.362 38.6828 157.478 37.6026 157.478 36.386C157.478 35.124 157.342 34.0285 157.069 33.1098C156.797 32.186 156.433 31.4742 155.969 30.9745C155.509 30.4747 155.005 30.2223 154.444 30.2223Z" fill="#1B3764"/>
<path d="M170.079 30.1515V30.5049C169.725 30.515 169.458 30.5604 169.271 30.6361C169.089 30.7119 168.968 30.8532 168.907 31.0602C168.847 31.2672 168.817 31.5902 168.817 32.0244V40.813C168.817 41.237 168.847 41.5551 168.912 41.7721C168.978 41.9841 169.099 42.1255 169.276 42.1962C169.453 42.2668 169.72 42.3123 170.073 42.3375V42.6909C169.73 42.6656 169.291 42.6505 168.751 42.6454C168.211 42.6404 167.666 42.6353 167.11 42.6353C166.474 42.6353 165.874 42.6404 165.313 42.6454C164.753 42.6505 164.299 42.6656 163.955 42.6909V42.3375C164.319 42.3123 164.591 42.2668 164.768 42.1962C164.945 42.1255 165.061 41.9841 165.121 41.7721C165.182 41.5601 165.212 41.2421 165.212 40.813V32.0294C165.212 31.5902 165.182 31.2722 165.121 31.0652C165.061 30.8583 164.94 30.7169 164.758 30.6412C164.576 30.5655 164.309 30.52 163.95 30.5099V30.1566C164.293 30.1667 164.743 30.1818 165.308 30.1919C165.868 30.202 166.469 30.2121 167.105 30.2121C167.661 30.2121 168.206 30.2071 168.746 30.1919C169.296 30.1768 169.735 30.1616 170.079 30.1515ZM176.565 30.1515V30.4898C176.161 30.5958 175.717 30.7926 175.228 31.0753C174.738 31.358 174.213 31.8123 173.658 32.4383L170.397 36.1436L171.83 34.2657L176.03 41.2673C176.182 41.5147 176.338 41.7216 176.49 41.8882C176.641 42.0548 176.848 42.2063 177.11 42.3476V42.701C176.616 42.6757 176.086 42.6606 175.525 42.6555C174.965 42.6505 174.43 42.6454 173.92 42.6454C173.647 42.6454 173.309 42.6505 172.91 42.6555C172.512 42.6606 172.002 42.6757 171.386 42.701V42.3476C171.941 42.3224 172.264 42.2567 172.35 42.1507C172.436 42.0447 172.396 41.8428 172.219 41.55L169.649 37.2087C169.533 36.9967 169.427 36.8351 169.331 36.7291C169.235 36.6231 169.145 36.5474 169.059 36.4969C168.968 36.4515 168.857 36.4212 168.716 36.4061V36.0325C169.235 36.0073 169.725 35.8356 170.185 35.5075C170.644 35.1844 171.199 34.6544 171.85 33.9224L172.451 33.251C172.946 32.6957 173.208 32.2162 173.239 31.8073C173.269 31.3984 173.143 31.0804 172.865 30.8482C172.587 30.616 172.224 30.4948 171.775 30.4847V30.1465C172.269 30.1566 172.729 30.1717 173.148 30.1818C173.567 30.1919 174.107 30.202 174.768 30.202C175.495 30.2071 176.091 30.1869 176.565 30.1515Z" fill="#1B3764"/>
<path d="M183.956 29.9043C184.723 29.9043 185.319 29.98 185.748 30.1365C186.172 30.2879 186.535 30.4495 186.828 30.6161C186.969 30.6968 187.085 30.7625 187.171 30.8028C187.257 30.8432 187.343 30.8634 187.429 30.8634C187.615 30.8634 187.747 30.606 187.817 30.086H188.226C188.216 30.3334 188.201 30.6211 188.181 30.9543C188.161 31.2875 188.151 31.7216 188.146 32.2668C188.14 32.812 188.135 33.5237 188.135 34.4122H187.727C187.681 33.761 187.53 33.13 187.272 32.5141C187.02 31.8983 186.671 31.3935 186.227 30.9896C185.783 30.5858 185.258 30.3889 184.642 30.3889C184.122 30.3889 183.693 30.5303 183.35 30.8129C183.007 31.0956 182.835 31.5045 182.835 32.0346C182.835 32.4738 182.941 32.8473 183.153 33.1603C183.365 33.4733 183.698 33.8014 184.153 34.1447C184.607 34.4879 185.208 34.917 185.95 35.437C186.48 35.8055 186.964 36.1689 187.393 36.5374C187.822 36.9059 188.171 37.3148 188.428 37.7792C188.686 38.2437 188.817 38.7939 188.817 39.4451C188.817 40.2376 188.595 40.8939 188.151 41.4138C187.706 41.9338 187.121 42.3225 186.389 42.5749C185.657 42.8273 184.859 42.9535 183.996 42.9535C183.193 42.9535 182.552 42.8828 182.073 42.7415C181.593 42.6001 181.189 42.4537 180.861 42.2972C180.599 42.1307 180.402 42.0499 180.26 42.0499C180.074 42.0499 179.942 42.3073 179.872 42.8273H179.463C179.488 42.5194 179.503 42.1609 179.508 41.7571C179.513 41.3533 179.518 40.8232 179.529 40.172C179.534 39.5208 179.539 38.698 179.539 37.6884H179.947C179.993 38.5163 180.129 39.2886 180.346 40.0105C180.563 40.7323 180.902 41.3129 181.356 41.7571C181.81 42.2013 182.416 42.4234 183.173 42.4234C183.824 42.4234 184.339 42.272 184.723 41.9641C185.107 41.6561 185.298 41.2321 185.298 40.6869C185.298 39.9549 185.056 39.3441 184.572 38.8545C184.087 38.3648 183.466 37.8651 182.709 37.3552C182.153 36.9766 181.634 36.598 181.149 36.2194C180.664 35.8408 180.276 35.4168 179.988 34.9422C179.7 34.4677 179.554 33.9074 179.554 33.2612C179.554 32.4838 179.761 31.8478 180.175 31.3581C180.589 30.8685 181.134 30.505 181.805 30.2678C182.477 30.0305 183.198 29.9043 183.956 29.9043Z" fill="#1B3764"/>
<path d="M41.0205 4.53293V3.4375H43.7616V4.53293H41.0205Z" fill="#1B3764"/>
<path d="M50.7285 6.46684V0.0507812H53.4494C53.7422 0.0507812 54.0148 0.111358 54.2621 0.232511C54.5095 0.353664 54.7266 0.515201 54.9083 0.722171C55.09 0.929141 55.2364 1.1563 55.3374 1.4087C55.4383 1.66111 55.4888 1.91856 55.4888 2.1861C55.4888 2.54956 55.403 2.89283 55.2364 3.2159C55.0698 3.53898 54.8376 3.80653 54.5398 4.01349C54.242 4.22046 53.8936 4.32143 53.4898 4.32143H51.9703V6.47189H50.7285V6.46684ZM51.9754 3.22095H53.4191C53.5706 3.22095 53.7069 3.18057 53.828 3.09475C53.9492 3.00893 54.0451 2.88778 54.1158 2.72624C54.1864 2.56471 54.2268 2.38298 54.2268 2.18106C54.2268 1.95894 54.1864 1.76712 54.1057 1.61063C54.0249 1.45414 53.9189 1.33803 53.7876 1.25726C53.6564 1.17649 53.5201 1.14116 53.3686 1.14116H51.9754V3.22095Z" fill="#1B3764"/>
<path d="M62.6264 5.37647V6.47189H58.1689V0.0507812H62.5456V1.14621H59.4158V2.69091H62.1165V3.70556H59.4158V5.37647H62.6264Z" fill="#1B3764"/>
<path d="M65.4072 6.46684V0.0507812H68.2442C68.5421 0.0507812 68.8096 0.111358 69.062 0.232511C69.3094 0.353664 69.5264 0.515201 69.7132 0.722171C69.8949 0.929141 70.0363 1.1563 70.1372 1.4087C70.2382 1.66111 70.2887 1.91856 70.2887 2.1861C70.2887 2.4587 70.2433 2.71615 70.1473 2.96855C70.0514 3.22095 69.9202 3.43802 69.7435 3.6248C69.5668 3.81157 69.3649 3.95797 69.1276 4.05893L70.5916 6.47189H69.2185L67.901 4.32143H66.6541V6.47189H65.4072V6.46684ZM66.6541 3.22095H68.219C68.3755 3.22095 68.5118 3.17552 68.6329 3.07961C68.7541 2.98874 68.85 2.86254 68.9207 2.70605C68.9913 2.54956 69.0317 2.37288 69.0317 2.18106C69.0317 1.97409 68.9913 1.7974 68.9055 1.64091C68.8197 1.48947 68.7137 1.36327 68.5824 1.27241C68.4512 1.18154 68.3149 1.13611 68.1635 1.13611H66.6541V3.22095Z" fill="#1B3764"/>
<path d="M73.2266 6.46684V0.0507812H77.5376V1.14621H74.4734V2.80196H77.0227V3.81662H74.4734V6.47189H73.2266V6.46684Z" fill="#1B3764"/>
<path d="M84.6811 5.37647V6.47189H80.2236V0.0507812H84.6003V1.14621H81.4705V2.69091H84.1712V3.70556H81.4705V5.37647H84.6811Z" fill="#1B3764"/>
<path d="M86.958 3.20546C86.958 2.81172 87.0287 2.42807 87.17 2.05451C87.3114 1.67591 87.5183 1.33264 87.7909 1.02471C88.0635 0.716779 88.3917 0.469425 88.7854 0.282647C89.1792 0.100918 89.6234 0.00500488 90.1231 0.00500488C90.7138 0.00500488 91.2236 0.136254 91.6577 0.393704C92.0868 0.651154 92.4099 0.989373 92.6219 1.40836L91.6628 2.06965C91.5517 1.82735 91.4104 1.63552 91.2388 1.49418C91.0621 1.35283 90.8753 1.25187 90.6784 1.19634C90.4815 1.14081 90.2847 1.11053 90.0928 1.11053C89.7799 1.11053 89.5073 1.17615 89.2751 1.30235C89.0429 1.42855 88.851 1.59514 88.6945 1.80211C88.538 2.00908 88.4219 2.23624 88.3462 2.48864C88.2705 2.74104 88.2352 2.99345 88.2352 3.24585C88.2352 3.52854 88.2806 3.80113 88.3715 4.06363C88.4623 4.32613 88.5885 4.55834 88.7551 4.76026C88.9217 4.96218 89.1186 5.12372 89.3508 5.23983C89.583 5.35593 89.8354 5.41651 90.113 5.41651C90.3099 5.41651 90.5118 5.38117 90.7188 5.31555C90.9258 5.24992 91.1125 5.14391 91.2892 4.99752C91.4659 4.85113 91.5972 4.66435 91.6981 4.43719L92.7178 5.02276C92.5916 5.34079 92.3847 5.61338 92.0969 5.83549C91.8092 6.05761 91.4912 6.22924 91.1327 6.3403C90.7794 6.4564 90.426 6.51193 90.0777 6.51193C89.6183 6.51193 89.1993 6.41602 88.8207 6.22924C88.4421 6.03742 88.114 5.78501 87.8414 5.47204C87.5688 5.15401 87.3518 4.80065 87.2003 4.4069C87.0337 4.0081 86.958 3.60931 86.958 3.20546Z" fill="#1B3764"/>
<path d="M100.153 1.14621H98.0989V6.46684H96.8622V1.14621H94.8076V0.0507812H100.148V1.14621H100.153Z" fill="#1B3764"/>
<path d="M110.295 1.73148C110.255 1.69109 110.174 1.63052 110.063 1.55985C109.952 1.48917 109.816 1.4185 109.654 1.35288C109.492 1.28725 109.321 1.22667 109.134 1.17619C108.947 1.12571 108.755 1.10047 108.564 1.10047C108.225 1.10047 107.973 1.16105 107.801 1.28725C107.63 1.41345 107.544 1.59013 107.544 1.8173C107.544 1.99398 107.599 2.13027 107.705 2.23124C107.816 2.3322 107.978 2.41801 108.195 2.49373C108.412 2.56441 108.685 2.64517 109.008 2.72594C109.432 2.8269 109.795 2.95311 110.108 3.0995C110.416 3.24589 110.659 3.43772 110.82 3.67498C110.987 3.91223 111.067 4.22521 111.067 4.61391C111.067 4.95718 111.002 5.24996 110.876 5.49227C110.749 5.73458 110.573 5.93145 110.351 6.08289C110.128 6.23433 109.876 6.34034 109.593 6.41101C109.311 6.48169 109.008 6.51702 108.69 6.51702C108.372 6.51702 108.049 6.48169 107.731 6.41606C107.413 6.35044 107.105 6.25453 106.807 6.13337C106.509 6.01222 106.241 5.86078 105.994 5.6841L106.544 4.60886C106.6 4.66439 106.696 4.73506 106.832 4.82088C106.968 4.9067 107.14 4.99756 107.337 5.08338C107.534 5.1692 107.751 5.24492 107.988 5.30549C108.225 5.36607 108.463 5.39636 108.7 5.39636C109.038 5.39636 109.296 5.34083 109.467 5.22472C109.644 5.11367 109.73 4.95213 109.73 4.74011C109.73 4.54829 109.659 4.39685 109.523 4.29084C109.386 4.18483 109.19 4.08891 108.942 4.00815C108.695 3.92738 108.402 3.83651 108.064 3.7406C107.66 3.6245 107.322 3.49829 107.049 3.35695C106.777 3.2156 106.575 3.03892 106.443 2.82186C106.312 2.60479 106.247 2.33724 106.247 2.00912C106.247 1.56994 106.353 1.20143 106.56 0.908648C106.766 0.610813 107.049 0.388699 107.403 0.23221C107.756 0.0807687 108.155 0 108.589 0C108.892 0 109.174 0.0353363 109.442 0.100961C109.71 0.166585 109.962 0.252402 110.199 0.363459C110.436 0.474516 110.643 0.590621 110.83 0.716822L110.295 1.73148Z" fill="#1B3764"/>
<path d="M118.619 1.14621H116.565V6.46684H115.328V1.14621H113.273V0.0507812H118.614V1.14621H118.619Z" fill="#1B3764"/>
<path d="M123.818 6.51198C123.349 6.51198 122.92 6.42111 122.541 6.23938C122.157 6.05765 121.829 5.81535 121.557 5.50237C121.284 5.19444 121.072 4.84107 120.921 4.45237C120.769 4.06367 120.693 3.66488 120.693 3.25599C120.693 2.8269 120.774 2.41801 120.931 2.02931C121.092 1.64061 121.309 1.2923 121.592 0.989416C121.875 0.686534 122.203 0.444228 122.586 0.267546C122.97 0.0908648 123.389 0 123.848 0C124.313 0 124.737 0.0959128 125.12 0.28269C125.504 0.469468 125.832 0.72187 126.1 1.03485C126.372 1.34783 126.579 1.69614 126.731 2.08484C126.882 2.47354 126.958 2.86729 126.958 3.27618C126.958 3.70022 126.877 4.10406 126.721 4.49276C126.564 4.88146 126.347 5.22977 126.064 5.53266C125.787 5.83554 125.454 6.07784 125.07 6.24948C124.686 6.42616 124.267 6.51198 123.818 6.51198ZM121.955 3.26104C121.955 3.53868 121.996 3.80622 122.082 4.06367C122.167 4.32113 122.289 4.55333 122.45 4.75526C122.612 4.95718 122.803 5.11872 123.036 5.23482C123.268 5.35093 123.53 5.4115 123.828 5.4115C124.131 5.4115 124.399 5.35093 124.631 5.22472C124.868 5.10357 125.06 4.93699 125.216 4.72497C125.373 4.518 125.494 4.28579 125.575 4.02834C125.656 3.77089 125.696 3.51344 125.696 3.25599C125.696 2.97835 125.651 2.7108 125.565 2.4584C125.479 2.20095 125.353 1.97378 125.196 1.77186C125.04 1.56994 124.843 1.4084 124.611 1.2923C124.378 1.17619 124.116 1.11562 123.828 1.11562C123.52 1.11562 123.253 1.17619 123.021 1.3024C122.788 1.42355 122.596 1.59013 122.435 1.7971C122.278 2.00407 122.157 2.23124 122.077 2.48364C121.996 2.73604 121.955 2.99349 121.955 3.26104Z" fill="#1B3764"/>
<path d="M129.72 6.46684V0.0507812H132.557C132.855 0.0507812 133.122 0.111358 133.375 0.232511C133.622 0.353664 133.839 0.515201 134.026 0.722171C134.207 0.929141 134.349 1.1563 134.45 1.4087C134.551 1.66111 134.601 1.91856 134.601 2.1861C134.601 2.4587 134.556 2.71615 134.46 2.96855C134.364 3.22095 134.233 3.43802 134.056 3.6248C133.879 3.81157 133.677 3.95797 133.44 4.05893L134.904 6.47189H133.531L132.213 4.32143H130.967V6.47189H129.72V6.46684ZM130.967 3.22095H132.531C132.688 3.22095 132.824 3.17552 132.945 3.07961C133.067 2.98874 133.162 2.86254 133.233 2.70605C133.304 2.54956 133.344 2.37288 133.344 2.18106C133.344 1.97409 133.304 1.7974 133.218 1.64091C133.132 1.48947 133.026 1.36327 132.895 1.27241C132.764 1.18154 132.627 1.13611 132.476 1.13611H130.967V3.22095Z" fill="#1B3764"/>
<path d="M141.996 5.37647V6.47189H137.539V0.0507812H141.916V1.14621H138.791V2.69091H141.492V3.70556H138.791V5.37647H141.996Z" fill="#1B3764"/>
<path d="M148.609 4.53293V3.4375H151.35V4.53293H148.609Z" fill="#1B3764"/>
<path d="M97.5687 28.6071C97.6141 28.5365 97.6747 28.4708 97.7403 28.4254L97.7454 28.4102C98.5379 27.6783 99.4718 27.1937 100.522 26.6788C101.602 26.1538 102.647 25.6187 103.616 24.8312C105.272 23.4884 106.731 21.5802 108.215 18.8341C108.932 17.5014 109.568 16.1385 110.158 14.8613C110.224 14.72 110.194 14.5635 110.078 14.4877C109.967 14.412 109.729 14.4019 109.598 14.5736C108.311 16.2748 106.544 17.35 104.823 18.4C104.404 18.6574 103.97 18.9199 103.551 19.1875C102.647 19.768 101.486 20.5706 100.507 21.6307C99.5021 22.7211 98.6843 24.1043 97.9372 25.9771C97.6747 26.6384 97.4172 27.3401 97.18 28.0518C97.1648 28.0771 97.1497 28.1023 97.1345 28.1276C97.1295 28.1326 97.1295 28.1326 97.1244 28.1377C97.079 28.1831 97.0487 28.2437 97.0336 28.3042C96.5237 29.1977 96.0694 30.1215 95.6504 31.0605C95.6555 30.9848 95.6656 30.904 95.6706 30.8283C95.8372 28.8494 95.7362 27.2997 95.3576 25.9519C94.9891 24.6394 94.3632 23.5036 93.8584 22.6555C93.6261 22.2617 93.3738 21.873 93.1314 21.4843C92.1471 19.9346 91.1324 18.3293 90.7791 16.3252C90.7437 16.1233 90.5367 16.0425 90.4055 16.0779C90.2743 16.1132 90.1834 16.2394 90.1783 16.3959C90.1329 17.774 90.0875 19.2481 90.1279 20.717C90.2036 23.7509 90.6175 26.0074 91.4303 27.8146C91.9048 28.8696 92.5459 29.7278 93.2223 30.5809C93.8786 31.4138 94.454 32.1862 94.8023 33.1352L94.7922 33.2109C94.4439 34.1499 94.131 35.0989 93.8432 36.053C93.5706 36.9616 93.3182 37.8804 93.081 38.7991C93.0507 38.6325 93.0204 38.4609 92.9901 38.2994C92.6822 36.6991 92.2127 35.4876 91.511 34.4881C90.8295 33.5189 89.9209 32.7415 89.2091 32.171C88.881 31.9085 88.5327 31.646 88.1945 31.3835C86.8315 30.3487 85.4231 29.2785 84.5851 27.7591C84.5043 27.6076 84.2873 27.5874 84.1661 27.6379C84.1005 27.6631 84.05 27.7136 84.0197 27.7792C83.9894 27.8398 83.9844 27.9105 83.9995 27.9761C84.2822 29.0766 84.5902 30.2528 84.9789 31.4088C85.7815 33.8016 86.7406 35.5078 87.9875 36.7799C88.7144 37.522 89.5726 38.0722 90.456 38.6224C91.3192 39.1525 92.0815 39.6522 92.662 40.3337L92.6721 40.4448C92.3137 41.9441 91.9754 43.4484 91.6271 44.9527C91.4504 45.7149 91.2738 46.4772 91.087 47.2344C91.0819 47.2193 91.0819 47.2041 91.0769 47.189C90.8346 45.8361 90.456 44.8164 89.8805 43.9835C89.3252 43.1707 88.5781 42.5195 87.9976 42.045C87.73 41.8279 87.4473 41.6109 87.1748 41.3989L87.1647 41.3888C86.049 40.5306 84.8981 39.6371 84.2216 38.37C84.1459 38.2287 83.9541 38.2186 83.8531 38.264C83.737 38.3145 83.6714 38.4458 83.7017 38.572C83.9238 39.5008 84.1712 40.4852 84.4841 41.4594C85.1303 43.4686 85.9077 44.9022 86.9274 45.9673C87.5231 46.5883 88.2247 47.0476 88.9567 47.5019C89.6281 47.9209 90.2187 48.3147 90.6831 48.8397C90.244 50.5106 89.7442 52.1663 89.1435 53.7918C88.6387 55.1497 88.0481 56.4774 87.3716 57.7545C87.4726 58.0019 87.5735 58.2543 87.6745 58.5067C88.2651 57.4516 88.7952 56.3562 89.2596 55.2305C90.4358 52.3784 91.2435 49.395 91.9553 46.4116C92.0512 46.0077 92.1471 45.5988 92.243 45.1899C93.081 45.1193 93.8987 45.296 94.8023 45.5231C95.7615 45.7654 96.7004 45.9774 97.71 45.9472C99.4364 45.8967 101.314 45.296 103.606 44.0541C104.717 43.4534 105.792 42.777 106.791 42.1409C106.908 42.0652 106.963 41.9188 106.928 41.7876C106.892 41.6513 106.731 41.4998 106.559 41.5554C104.903 42.1005 103.228 41.8734 101.602 41.6563C101.203 41.6008 100.794 41.5453 100.396 41.5049C99.5273 41.414 98.3814 41.3383 97.2305 41.5705C96.0492 41.8128 94.8478 42.3933 93.4495 43.3979C93.1314 43.6301 92.8033 43.8724 92.4802 44.1299C92.9447 42.1005 93.404 40.0662 93.9442 38.052L94.0249 37.9359C94.9235 37.4715 95.8675 37.2898 96.9124 37.1131C97.9877 36.9364 99.0427 36.7345 100.103 36.2751C101.92 35.4876 103.742 34.0994 105.847 31.9085C106.867 30.8485 107.826 29.7328 108.72 28.6828C108.821 28.5667 108.836 28.4052 108.765 28.2941C108.69 28.178 108.483 28.0973 108.321 28.2235C106.706 29.4703 104.873 29.965 103.096 30.4547C102.662 30.5708 102.213 30.697 101.774 30.8283C100.83 31.111 99.598 31.5299 98.442 32.2518C97.2557 32.9939 96.135 34.0742 94.9235 35.6441C94.762 35.8561 94.6004 36.0732 94.4389 36.2902C95.1961 33.746 96.135 31.2472 97.4071 28.9201C97.4526 28.804 97.5081 28.7081 97.5687 28.6071ZM105.923 21.3783C105.161 22.4586 104.353 23.3774 103.525 24.0992C102.541 24.9574 101.466 25.5329 100.542 25.9872L100.375 26.068C99.8655 26.3153 99.3052 26.5879 98.76 26.911C99.8251 25.6187 101.133 24.6242 102.4 23.7105C102.531 23.6146 102.657 23.5237 102.788 23.4329L102.819 23.4127C103.566 22.8776 104.338 22.3223 105.07 21.7115C105.736 21.1562 106.322 20.5858 106.847 19.98C106.534 20.4747 106.231 20.9391 105.923 21.3783ZM100.729 22.3173C101.991 20.8331 103.616 19.8488 105.186 18.8896C105.741 18.5514 106.317 18.2031 106.867 17.8346C107.387 17.4863 107.852 17.1481 108.265 16.8098C107.912 17.4106 107.559 17.9608 107.2 18.4757C106.544 19.4146 105.767 20.2728 104.888 21.03C104.106 21.7064 103.258 22.3173 102.44 22.9028C101.516 23.5641 100.562 24.2507 99.6838 25.0432C99.2598 25.4269 98.8761 25.8105 98.5278 26.2043C98.9922 25.0331 99.6889 23.5338 100.729 22.3173ZM90.7235 38.0873L90.5872 38.0015C89.825 37.5321 88.9517 36.9414 88.2247 36.1388C87.6089 35.4573 87.0536 34.6294 86.574 33.6703C86.4024 33.3321 86.2409 32.9737 86.0844 32.6001C86.4226 33.1049 86.8214 33.5946 87.2858 34.0792C87.831 34.6547 88.4317 35.1898 89.0122 35.7097L89.3353 36.0025C90.2843 36.8556 91.2586 37.7794 91.9653 38.9001C91.5514 38.5972 91.1223 38.3297 90.7235 38.0873ZM91.5666 37.3402C90.9154 36.6032 90.1783 35.9369 89.4666 35.2958C88.8305 34.7254 88.1793 34.1398 87.5937 33.5037C86.9425 32.792 86.4024 32.0095 85.9885 31.1816C85.7764 30.7525 85.5745 30.2982 85.3827 29.8086C85.6856 30.1165 86.0238 30.4244 86.4125 30.7475C86.8466 31.1059 87.301 31.4542 87.7452 31.7874C88.9971 32.7364 90.2944 33.7208 91.1526 35.0585C91.8391 36.1287 92.1723 37.3756 92.3641 38.3599C92.1319 38.0217 91.8694 37.6835 91.5666 37.3402ZM89.2041 47.0123L89.093 46.9416C88.4721 46.5529 87.7553 46.0633 87.1596 45.3969C86.6599 44.8315 86.2055 44.1349 85.8168 43.3323C85.7058 43.1001 85.5998 42.8577 85.4938 42.6053C85.7462 42.9739 86.0389 43.3323 86.3721 43.6907C86.8214 44.1702 87.311 44.6195 87.7856 45.0536L88.0481 45.296C88.8002 45.9875 89.5675 46.7296 90.138 47.6281C89.825 47.401 89.5019 47.1991 89.2041 47.0123ZM89.9057 46.3762C89.3757 45.7553 88.7699 45.2051 88.1844 44.67C87.6644 44.1955 87.1293 43.7058 86.6548 43.1758C86.1248 42.5852 85.6856 41.9289 85.3524 41.2323C85.1909 40.8991 85.0445 40.5457 84.8981 40.1671C85.1303 40.3993 85.3877 40.6417 85.6755 40.884C86.0288 41.1818 86.4075 41.4746 86.7659 41.7522C87.7906 42.5397 88.8507 43.3575 89.5473 44.4782C90.0824 45.3363 90.35 46.3409 90.5014 47.1536C90.3298 46.8962 90.1279 46.6387 89.9057 46.3762ZM97.0336 42.2469C98.5682 41.8532 100.103 42.0652 101.592 42.2671C102.117 42.3378 102.662 42.4135 103.197 42.459C103.682 42.4993 104.126 42.5145 104.545 42.5044C104.045 42.7467 103.571 42.9537 103.106 43.1303C102.228 43.4635 101.304 43.6604 100.37 43.721C99.5324 43.7765 98.6893 43.7412 97.8665 43.7058C96.9427 43.6654 95.9937 43.6251 95.0346 43.7109C94.5954 43.7513 94.1814 43.8118 93.7826 43.9027C94.6459 43.2818 95.8019 42.565 97.0336 42.2469ZM97.4425 44.3267C97.5788 44.3318 97.7151 44.3368 97.8514 44.3419H97.8665C98.6136 44.3722 99.3809 44.4075 100.153 44.3722C100.81 44.3419 101.425 44.2611 102.021 44.1248C101.627 44.3065 101.244 44.4681 100.87 44.6044C99.8504 44.983 98.8862 45.2101 97.9927 45.2758C96.9377 45.3515 95.9583 45.1496 95.1406 44.9476L94.9942 44.9123C94.56 44.8012 94.0855 44.6851 93.5959 44.6044C94.8932 44.2611 96.2007 44.2762 97.4425 44.3267ZM98.4268 32.9737C99.9513 31.9338 101.632 31.4744 103.263 31.0302C103.838 30.8737 104.434 30.7122 105.015 30.5254C105.545 30.3588 106.019 30.1771 106.463 29.9852C105.989 30.4446 105.534 30.8535 105.08 31.2321C104.232 31.9338 103.308 32.5244 102.334 32.9838C101.461 33.3977 100.557 33.7258 99.6788 34.0439C98.6944 34.4023 97.6747 34.7708 96.6853 35.2655C96.2259 35.4927 95.8019 35.735 95.4031 35.9975C96.1502 35.0282 97.1901 33.8217 98.4268 32.9737ZM99.4062 34.8112L99.8554 34.6496C100.653 34.3619 101.481 34.059 102.284 33.6955C102.98 33.3826 103.621 33.0292 104.222 32.6355C103.838 32.9939 103.465 33.327 103.091 33.635C102.112 34.4427 101.143 35.0787 100.219 35.5229C99.1235 36.0479 98.0331 36.2751 97.1093 36.4316L96.9427 36.4568C96.448 36.5376 95.9079 36.6285 95.3627 36.7648C96.66 35.8612 98.0684 35.3059 99.4062 34.8112ZM93.6161 30.0711L93.5151 29.9398C92.9396 29.2028 92.2834 28.2992 91.8291 27.1735C91.4454 26.2194 91.1577 25.0987 90.9759 23.8418C90.9103 23.3673 90.8548 22.8675 90.8144 22.3425C90.9911 23.0391 91.2283 23.7307 91.5312 24.4324C91.8846 25.2451 92.2884 26.0225 92.6872 26.7747L92.9093 27.1987C93.5706 28.4658 94.2319 29.8237 94.5752 31.3634C94.2673 30.8939 93.924 30.4648 93.6161 30.0711ZM95.0699 30.7778C94.9487 30.3134 94.7973 29.854 94.6156 29.3744C94.2168 28.3396 93.712 27.3804 93.2274 26.4516C92.7932 25.6288 92.349 24.7757 91.9805 23.8822C91.5716 22.8826 91.2839 21.8226 91.1324 20.7372C91.0517 20.1517 90.9911 19.5408 90.9507 18.8846C91.1476 19.3238 91.3848 19.7781 91.6574 20.2577C91.9603 20.7827 92.2935 21.3077 92.6115 21.8074C93.5151 23.231 94.449 24.6999 94.873 26.5021C95.2112 27.9559 95.1709 29.5511 95.0699 30.7778Z" fill="#1B3764"/>
<path d="M52.1008 64.786H53.6202L52.232 71.3283H55.9978L55.7202 72.6711H50.4248L52.1008 64.786Z" fill="#1B3764"/>
<path d="M61.8179 72.7819C61.2576 72.7819 60.7932 72.6709 60.4348 72.4538C60.0763 72.2317 59.8088 71.9389 59.6422 71.5704C59.4756 71.2019 59.3848 70.793 59.3848 70.3437C59.3848 69.8743 59.4706 69.43 59.6473 69.006C59.8189 68.582 60.0663 68.2034 60.3843 67.8752C60.7023 67.5471 61.0809 67.2897 61.51 67.1029C61.9441 66.9161 62.4186 66.8202 62.9386 66.8202C63.4989 66.8202 63.9633 66.9312 64.3218 67.1483C64.6802 67.3704 64.9477 67.6632 65.1143 68.0267C65.2859 68.3952 65.3717 68.8041 65.3717 69.2584C65.3717 69.7279 65.2859 70.1721 65.1092 70.5961C64.9326 71.0202 64.6903 71.3988 64.3722 71.7269C64.0542 72.055 63.6756 72.3125 63.2465 72.4992C62.8124 72.6911 62.3379 72.7819 61.8179 72.7819ZM62.04 71.5149C62.2672 71.5149 62.4893 71.4644 62.7064 71.3634C62.9184 71.2625 63.1102 71.1161 63.2768 70.9293C63.4434 70.7425 63.5746 70.5204 63.6756 70.263C63.7766 70.0105 63.827 69.7329 63.827 69.4351C63.827 69.1675 63.7867 68.9303 63.7008 68.7284C63.615 68.5264 63.4888 68.3649 63.3222 68.2538C63.1557 68.1428 62.9537 68.0872 62.7165 68.0872C62.4843 68.0872 62.2672 68.1377 62.0552 68.2387C61.8432 68.3397 61.6513 68.486 61.4848 68.6728C61.3182 68.8596 61.1819 69.0868 61.0809 69.3442C60.9799 69.6017 60.9295 69.8793 60.9295 70.1771C60.9295 70.4396 60.9698 70.6718 61.0557 70.8738C61.1415 71.0757 61.2677 71.2372 61.4343 71.3483C61.6009 71.4593 61.8028 71.5149 62.04 71.5149Z" fill="#1B3764"/>
<path d="M70.5718 72.7827C70.0973 72.7827 69.653 72.707 69.234 72.5505C68.8151 72.394 68.4819 72.1719 68.2295 71.8842L68.9716 70.9503C69.2542 71.1926 69.542 71.3794 69.8398 71.5106C70.1377 71.6419 70.4355 71.7025 70.7384 71.7025C70.9453 71.7025 71.122 71.6722 71.2735 71.6116C71.4199 71.551 71.536 71.4703 71.6167 71.3642C71.6975 71.2582 71.7379 71.1421 71.7379 71.0058C71.7379 70.8241 71.6571 70.6878 71.4956 70.602C71.334 70.5162 71.0766 70.4203 70.7283 70.3193C70.3446 70.1931 70.0266 70.077 69.7792 69.9609C69.5319 69.8498 69.3502 69.7135 69.229 69.557C69.1129 69.4006 69.0523 69.1986 69.0523 68.9614C69.0523 68.5525 69.1684 68.189 69.4006 67.8659C69.6328 67.5429 69.9509 67.2905 70.3446 67.1037C70.7384 66.9169 71.1826 66.826 71.6723 66.826C72.0963 66.826 72.4698 66.8917 72.803 67.0229C73.1362 67.1542 73.434 67.3561 73.6915 67.6287L72.904 68.5272C72.6667 68.3051 72.4396 68.1436 72.2225 68.0426C72.0054 67.9417 71.7631 67.8912 71.5057 67.8912C71.3138 67.8912 71.1422 67.9164 70.9908 67.972C70.8393 68.0275 70.7182 68.1083 70.6324 68.2143C70.5415 68.3203 70.5011 68.4515 70.5011 68.603C70.5011 68.7695 70.5718 68.8907 70.7081 68.9664C70.8444 69.0421 71.0816 69.133 71.4249 69.234C71.8388 69.3501 72.1821 69.4712 72.4446 69.6025C72.7121 69.7287 72.909 69.8801 73.0453 70.0568C73.1766 70.2335 73.2472 70.4556 73.2472 70.7231C73.2472 71.127 73.1362 71.4803 72.9141 71.7883C72.692 72.0962 72.379 72.3385 71.9802 72.5152C71.5713 72.6919 71.1018 72.7827 70.5718 72.7827Z" fill="#1B3764"/>
<path d="M85.6195 64.786H86.9876L88.1335 72.6711H86.5585L86.3616 70.7074H83.7417L82.7068 72.6711H81.1318L85.6195 64.786ZM86.2405 69.6271L85.9275 66.5276L84.297 69.6271H86.2405Z" fill="#1B3764"/>
<path d="M92.8383 66.906H94.1811L93.9489 67.9812C94.1407 67.7339 94.3628 67.5219 94.6203 67.3502C94.8777 67.1786 95.1554 67.0474 95.4532 66.9565C95.751 66.8656 96.064 66.8202 96.3821 66.8202C96.7203 66.8202 96.9878 66.8808 97.1696 66.9969C97.3563 67.113 97.4876 67.2745 97.5633 67.4764C97.639 67.6784 97.6794 67.9005 97.6794 68.1529C97.6794 68.3043 97.6693 68.4608 97.6441 68.6122C97.6239 68.7637 97.5936 68.9252 97.5683 69.0868L96.801 72.6759H95.3119L95.9984 69.4603C96.0287 69.3493 96.0489 69.2483 96.059 69.1524C96.0691 69.0565 96.0741 68.9656 96.0741 68.8798C96.0741 68.6223 96.0186 68.4356 95.9025 68.3144C95.7864 68.1933 95.6349 68.1327 95.4431 68.1327C95.2664 68.1327 95.0746 68.1832 94.8676 68.2841C94.6607 68.3851 94.4638 68.5264 94.277 68.7031C94.0902 68.8798 93.9388 69.0868 93.8126 69.3139L93.0907 72.6759H91.6016L92.8383 66.906Z" fill="#1B3764"/>
<path d="M102.688 75.1495C102.082 75.1495 101.592 75.0435 101.213 74.8314C100.84 74.6194 100.547 74.3216 100.33 73.9379L101.309 73.1504C101.456 73.423 101.673 73.6401 101.956 73.7966C102.238 73.9531 102.561 74.0288 102.92 74.0288C103.207 74.0288 103.485 73.9733 103.753 73.8572C104.02 73.7461 104.252 73.5694 104.459 73.3322C104.661 73.0949 104.803 72.792 104.873 72.4185L105.03 71.6915C104.777 72.0399 104.469 72.3125 104.101 72.4992C103.732 72.6911 103.364 72.7819 102.995 72.7819C102.587 72.7819 102.238 72.6759 101.945 72.469C101.653 72.262 101.431 71.9793 101.284 71.631C101.138 71.2827 101.062 70.8889 101.062 70.4548C101.062 69.9752 101.148 69.5108 101.325 69.0767C101.496 68.6375 101.738 68.2538 102.046 67.9156C102.354 67.5774 102.708 67.3099 103.101 67.113C103.495 66.9161 103.914 66.8202 104.348 66.8202C104.777 66.8202 105.131 66.9212 105.408 67.1231C105.686 67.325 105.893 67.5976 106.024 67.9308L106.236 66.906H107.549L106.362 72.4134C106.246 72.9839 106.009 73.4786 105.651 73.8824C105.292 74.2862 104.863 74.6043 104.353 74.8213C103.844 75.0384 103.288 75.1495 102.688 75.1495ZM103.768 71.5956C103.914 71.5956 104.061 71.5704 104.207 71.5149C104.353 71.4593 104.49 71.3887 104.626 71.2928C104.757 71.2019 104.883 71.0908 104.994 70.9646C105.106 70.8384 105.201 70.7072 105.282 70.5759L105.57 69.1978C105.54 68.9707 105.469 68.7738 105.358 68.6072C105.247 68.4406 105.111 68.3094 104.954 68.2185C104.798 68.1276 104.621 68.0822 104.429 68.0822C104.187 68.0822 103.955 68.1478 103.743 68.274C103.525 68.4002 103.334 68.5668 103.167 68.7687C103 68.9707 102.864 69.2029 102.768 69.4553C102.672 69.7077 102.622 69.9702 102.622 70.2327C102.622 70.48 102.672 70.7072 102.768 70.9192C102.864 71.1312 103 71.2978 103.172 71.4139C103.334 71.5351 103.536 71.5956 103.768 71.5956Z" fill="#1B3764"/>
<path d="M113.006 72.7821C112.516 72.7821 112.092 72.6761 111.733 72.4691C111.375 72.2621 111.102 71.9694 110.911 71.6009C110.719 71.2323 110.628 70.8134 110.628 70.3439C110.628 69.8694 110.719 69.4201 110.906 68.991C111.092 68.5619 111.35 68.1934 111.683 67.8653C112.016 67.5372 112.405 67.2848 112.849 67.098C113.293 66.9112 113.773 66.8153 114.293 66.8153C114.717 66.8153 115.08 66.8759 115.393 67.0021C115.706 67.1283 115.944 67.31 116.115 67.5473C116.287 67.7845 116.373 68.0773 116.373 68.4206C116.373 69.0314 116.095 69.4908 115.535 69.8088C114.974 70.1268 114.136 70.2833 113.021 70.2833C112.799 70.2833 112.556 70.2783 112.299 70.2682C112.041 70.2581 111.759 70.2379 111.456 70.2076L111.643 69.2737C111.91 69.2939 112.152 69.3141 112.375 69.3242C112.597 69.3343 112.814 69.3393 113.031 69.3393C113.51 69.3393 113.894 69.309 114.167 69.2434C114.444 69.1778 114.646 69.0819 114.772 68.9607C114.899 68.8396 114.959 68.6932 114.959 68.5266C114.959 68.3802 114.924 68.2641 114.848 68.1732C114.772 68.0824 114.671 68.0117 114.545 67.9663C114.414 67.9208 114.263 67.8956 114.086 67.8956C113.798 67.8956 113.531 67.9612 113.293 68.0975C113.051 68.2338 112.844 68.4155 112.667 68.6477C112.491 68.88 112.354 69.1475 112.258 69.4453C112.163 69.7432 112.112 70.0612 112.112 70.3944C112.112 70.6417 112.152 70.8638 112.238 71.0658C112.324 71.2677 112.45 71.4191 112.622 71.5302C112.794 71.6412 113.011 71.6917 113.278 71.6917C113.576 71.6917 113.854 71.621 114.116 71.4797C114.379 71.3383 114.591 71.1415 114.742 70.8891L115.918 71.2576C115.726 71.5554 115.474 71.8179 115.161 72.0451C114.848 72.2722 114.51 72.454 114.141 72.5852C113.768 72.7165 113.389 72.7821 113.006 72.7821Z" fill="#1B3764"/>
<path d="M120.689 72.7825C120.32 72.7825 120.032 72.6967 119.825 72.52C119.623 72.3434 119.522 72.096 119.522 71.7679C119.522 71.7023 119.528 71.6316 119.538 71.5609C119.548 71.4902 119.558 71.4196 119.568 71.3439L121.012 64.5643H122.491L121.168 70.8239C121.163 70.8592 121.153 70.8996 121.153 70.935C121.148 70.9703 121.148 71.0107 121.148 71.046C121.148 71.3489 121.299 71.5003 121.602 71.5003C121.683 71.5003 121.779 71.4852 121.885 71.4549C121.991 71.4246 122.092 71.3893 122.188 71.3439L122.142 72.4746C121.935 72.5705 121.693 72.6462 121.421 72.6967C121.148 72.7472 120.906 72.7825 120.689 72.7825Z" fill="#1B3764"/>
<path d="M127.62 72.7827C127.145 72.7827 126.701 72.707 126.282 72.5505C125.863 72.394 125.53 72.1719 125.277 71.8842L126.019 70.9503C126.302 71.1926 126.59 71.3794 126.888 71.5106C127.186 71.6419 127.483 71.7025 127.786 71.7025C127.993 71.7025 128.17 71.6722 128.321 71.6116C128.468 71.551 128.584 71.4703 128.665 71.3642C128.745 71.2582 128.786 71.1421 128.786 71.0058C128.786 70.8241 128.705 70.6878 128.543 70.602C128.382 70.5162 128.124 70.4203 127.776 70.3193C127.392 70.1931 127.074 70.077 126.827 69.9609C126.58 69.8498 126.398 69.7135 126.277 69.557C126.161 69.4006 126.1 69.1986 126.1 68.9614C126.1 68.5525 126.216 68.189 126.448 67.8659C126.681 67.5429 126.999 67.2905 127.392 67.1037C127.786 66.9169 128.23 66.826 128.72 66.826C129.144 66.826 129.518 66.8917 129.851 67.0229C130.184 67.1542 130.482 67.3561 130.739 67.6287L129.952 68.5272C129.715 68.3051 129.487 68.1436 129.27 68.0426C129.053 67.9417 128.811 67.8912 128.554 67.8912C128.362 67.8912 128.19 67.9164 128.039 67.972C127.887 68.0275 127.766 68.1083 127.68 68.2143C127.589 68.3203 127.549 68.4515 127.549 68.603C127.549 68.7695 127.62 68.8907 127.756 68.9664C127.892 69.0421 128.129 69.133 128.473 69.234C128.887 69.3501 129.23 69.4712 129.492 69.6025C129.76 69.7287 129.957 69.8801 130.093 70.0568C130.224 70.2335 130.295 70.4556 130.295 70.7231C130.295 71.127 130.184 71.4803 129.962 71.7883C129.74 72.0962 129.427 72.3385 129.028 72.5152C128.619 72.6919 128.155 72.7827 127.62 72.7827Z" fill="#1B3764"/>
<path d="M133.597 72.6713L133.94 71.071H135.162L134.818 72.6713H133.597Z" fill="#1B3764"/>
</svg>
