<svg width="100" height="100" viewBox="0 0 100 100" fill="none" xmlns="http://www.w3.org/2000/svg">
<path d="M49.887 99.77C22.3787 99.77 0 77.3913 0 49.887C0 22.3787 22.3787 0 49.887 0C77.3913 0 99.77 22.3787 99.77 49.887C99.77 77.3913 77.3913 99.77 49.887 99.77ZM49.887 2.02595C23.497 2.02595 2.02595 23.497 2.02595 49.887C2.02595 76.2771 23.497 97.7481 49.887 97.7481C76.2771 97.7481 97.7481 76.2771 97.7481 49.887C97.7441 23.497 76.2771 2.02595 49.887 2.02595Z" fill="#1B3764"/>
<path d="M10.2272 49.2269C10.2272 49.389 10.5068 49.47 11.07 49.47C11.2078 49.47 11.3131 49.4538 11.378 49.4254C11.5522 49.3403 11.771 49.2998 12.0263 49.2998C12.2816 49.2998 12.4112 49.3646 12.4112 49.4984C12.4112 49.551 12.391 49.628 12.3464 49.7253C12.3018 49.8266 12.2694 49.8873 12.2491 49.9076C12.2289 49.9279 12.1478 49.9603 12.0101 49.9967C11.8723 50.0332 11.7832 50.0575 11.7386 50.0616C11.6981 50.0656 11.6697 50.0697 11.6576 50.0697C11.6454 50.0737 11.6292 50.0737 11.6089 50.0778C11.5887 50.0818 11.5482 50.0859 11.4833 50.098C11.4185 50.1102 11.3699 50.1102 11.3415 50.098C10.523 50.5032 9.95981 50.9449 9.65187 51.4271C9.5141 51.6459 9.44522 51.8323 9.44522 51.9862C9.44522 52.2293 9.6154 52.355 9.95576 52.355C10.2191 52.355 10.5595 52.2496 10.9647 52.043C11.3739 51.8363 11.7345 51.581 12.0506 51.2852C12.3666 50.9895 12.5247 50.7342 12.5247 50.5154C12.5247 50.4465 12.5773 50.41 12.6786 50.41C12.9177 50.41 13.0393 50.5519 13.0393 50.8355C13.0393 50.9692 12.9825 51.1272 12.865 51.3136C12.7475 51.5 12.5854 51.6864 12.3788 51.8728C12.1722 52.0632 11.9412 52.2374 11.6859 52.4036C11.4307 52.5657 11.147 52.6994 10.835 52.8047C10.523 52.9101 10.2597 52.9627 10.0449 52.9627C9.83015 52.9627 9.65592 52.9425 9.52221 52.902C9.3885 52.8614 9.26694 52.8007 9.14943 52.7196C8.89822 52.5454 8.76855 52.278 8.76855 51.9214C8.76855 51.7269 8.82123 51.5324 8.92658 51.3339C9.03193 51.1353 9.16564 50.953 9.33582 50.7909C9.64377 50.483 9.97602 50.2277 10.3326 50.0251C9.82205 49.9076 9.56678 49.6442 9.56678 49.239C9.56678 48.7771 9.9193 48.3557 10.6284 47.9748C11.0214 47.7641 11.4509 47.6142 11.9088 47.521C12.1276 47.4765 12.3099 47.4521 12.4558 47.4521C12.7516 47.4521 12.9785 47.4765 13.1284 47.521C13.2216 47.5656 13.2945 47.6264 13.3513 47.7074C13.408 47.7885 13.4363 47.8573 13.4363 47.9141C13.4363 47.9708 13.4282 48.0235 13.4161 48.0721C13.3999 48.1207 13.3756 48.1572 13.3432 48.1815C13.2945 48.218 13.2378 48.2463 13.177 48.2666C13.1162 48.2868 13.0798 48.299 13.0676 48.303C12.8731 48.3841 12.707 48.4246 12.5692 48.4246C12.3221 48.4246 12.1884 48.3922 12.164 48.3274C12.1681 48.2625 12.1965 48.1896 12.2451 48.1045C12.0101 48.1126 11.767 48.1612 11.5117 48.2463C11.2605 48.3314 11.0417 48.4327 10.8553 48.5462C10.6689 48.6596 10.519 48.7812 10.4015 48.9027C10.288 49.0364 10.2272 49.1418 10.2272 49.2269Z" fill="#1B3764"/>
<path d="M13.3029 52.1164L13.2989 52.1772C13.2989 52.238 13.3232 52.2906 13.3678 52.3352C13.4164 52.3798 13.4569 52.4041 13.4974 52.4041C13.7932 52.4041 14.0566 52.3595 14.2875 52.2704C14.5185 52.1812 14.632 52.0921 14.632 52.0029C14.632 51.9624 14.5914 51.926 14.5063 51.8935C14.4213 51.8611 14.2835 51.8247 14.0849 51.7801C13.8864 51.7355 13.7446 51.6991 13.6554 51.6707C13.5663 51.6464 13.4974 51.6221 13.4447 51.5978C13.3921 51.5775 13.3394 51.5451 13.2867 51.5046C13.1692 51.4235 13.1125 51.302 13.1125 51.1399C13.1125 50.9778 13.1733 50.8157 13.2908 50.6577C13.4123 50.4997 13.5622 50.3619 13.7405 50.2485C13.9188 50.135 14.1174 50.0337 14.324 49.9486C14.7332 49.7784 15.0817 49.6934 15.3613 49.6934C15.6368 49.6934 15.807 49.7541 15.8718 49.8716C15.8921 49.9122 15.9002 49.9608 15.9002 50.0135V50.0378C15.9002 50.1674 15.8718 50.2728 15.8151 50.3457C15.7584 50.4187 15.6733 50.4875 15.5517 50.5483C15.4302 50.6091 15.337 50.6375 15.264 50.6375C15.1952 50.6375 15.1506 50.6334 15.1303 50.6212C15.1101 50.6091 15.0979 50.5969 15.0817 50.5807C15.0696 50.5645 15.0533 50.5524 15.0371 50.5443C15.0169 50.5362 15.0088 50.5199 15.0088 50.4875C15.0088 50.4592 15.0209 50.4268 15.0452 50.3984C15.0696 50.366 15.0858 50.3336 15.0979 50.3011C14.9358 50.3092 14.7616 50.3457 14.5833 50.4146C14.405 50.4835 14.2511 50.5605 14.1255 50.6415C13.9999 50.7266 13.8905 50.8076 13.8094 50.8846C13.7243 50.9616 13.6838 51.0183 13.6838 51.0548C13.6838 51.0913 13.7405 51.1196 13.854 51.1439C14.3686 51.2452 14.7049 51.3344 14.8629 51.4073C15.0209 51.4802 15.1344 51.5653 15.1992 51.6585C15.26 51.7517 15.2924 51.8368 15.2924 51.9138C15.2924 52.0718 15.2276 52.2217 15.102 52.3636C14.9764 52.5054 14.8183 52.6188 14.632 52.708C14.2349 52.9025 13.8864 52.9997 13.5906 52.9997C13.2948 52.9997 13.0922 52.9551 12.9788 52.866C12.8653 52.7769 12.8086 52.6675 12.8086 52.5459C12.8086 52.4243 12.841 52.3068 12.9018 52.2015C12.9666 52.0961 13.0477 52.0435 13.1449 52.0435C13.2503 52.0394 13.3029 52.0637 13.3029 52.1164Z" fill="#1B3764"/>
<path d="M18.2459 48.0723L18.3998 48.1087C18.4201 48.1087 18.4403 48.1209 18.4606 48.1411C18.4809 48.1614 18.4849 48.1857 18.4849 48.206C18.4849 48.2262 18.4606 48.2789 18.4079 48.364C18.3553 48.4491 18.2945 48.5504 18.2256 48.6598C18.1567 48.7692 18.1162 48.83 18.1121 48.8381C18.3066 48.8219 18.4403 48.8178 18.5214 48.8178C18.6024 48.8178 18.6551 48.8219 18.6875 48.834C18.7199 48.8462 18.7523 48.8745 18.7888 48.9272C18.8253 48.9799 18.8617 49.0164 18.8942 49.0407C18.9266 49.065 18.9428 49.1055 18.9428 49.1582C18.9428 49.2109 18.9104 49.2554 18.8496 49.2919C18.7848 49.3284 18.7199 49.3486 18.647 49.3567C18.0716 49.4134 17.7556 49.4418 17.6948 49.4459C17.4922 49.7538 17.2126 50.2319 16.852 50.8802C16.4914 51.5285 16.3009 51.9378 16.2766 52.0999C16.2685 52.1728 16.2604 52.2336 16.2604 52.2822C16.2604 52.3794 16.3131 52.4281 16.4144 52.4281C16.5157 52.4281 16.6291 52.3875 16.7507 52.3106C16.8723 52.2336 16.9898 52.1485 17.0911 52.0553C17.3666 51.8081 17.5165 51.6825 17.5368 51.6825C17.6016 51.6825 17.634 51.7919 17.634 52.0188C17.634 52.1404 17.5773 52.2498 17.4679 52.347C17.2167 52.5618 17.006 52.7239 16.8358 52.8333C16.6656 52.9427 16.4954 52.9953 16.3253 52.9953C16.2888 52.9953 16.2523 52.9913 16.2199 52.9832C16.0214 52.9467 15.8755 52.8738 15.7823 52.7644C15.6891 52.655 15.6445 52.5091 15.6445 52.3268C15.6445 52.1444 15.7013 51.9216 15.8066 51.6582C15.916 51.3989 16.0497 51.1193 16.2118 50.8235C16.4792 50.3413 16.7466 49.8916 17.0141 49.4702L16.8723 49.4904C16.5846 49.5228 16.4184 49.5391 16.3698 49.5391H16.3374C16.2645 49.5391 16.1956 49.5228 16.1308 49.4945C16.0659 49.4661 16.0295 49.4297 16.0295 49.3891C16.0295 49.3486 16.0457 49.3081 16.0821 49.2676C16.1186 49.2271 16.1389 49.1987 16.147 49.1744C16.1632 49.1217 16.228 49.0609 16.3415 48.992C16.4549 48.9232 16.54 48.8908 16.5967 48.8867C16.6535 48.8826 16.7102 48.8786 16.7629 48.8786C16.8155 48.8745 16.8763 48.8745 16.9411 48.8705C17.006 48.8664 17.0586 48.8664 17.0911 48.8624L17.4274 48.8462C17.634 48.5342 17.7799 48.3316 17.8569 48.2424C17.9339 48.1533 17.9784 48.1047 17.9906 48.0966C18.0027 48.0885 18.0271 48.0844 18.0635 48.0844L18.2459 48.0723Z" fill="#1B3764"/>
<path d="M17.8287 52.4195C17.9462 52.302 18.0637 52.2412 18.1771 52.2412C18.3838 52.2412 18.4851 52.3263 18.4851 52.4924C18.4851 52.6302 18.4284 52.7639 18.3108 52.8936C18.1933 53.0232 18.0637 53.0881 17.9178 53.0881C17.7395 53.0881 17.6504 52.9989 17.6504 52.8166C17.6504 52.6707 17.7112 52.537 17.8287 52.4195Z" fill="#1B3764"/>
<path d="M80.2395 52.2489C80.8797 52.1233 81.3213 52.0585 81.5685 52.0585C81.6617 52.0585 81.7103 52.0869 81.7265 52.1436C81.7306 52.1679 81.7427 52.1841 81.763 52.1922C81.7832 52.2044 81.8035 52.253 81.8237 52.3381C81.844 52.4232 81.8562 52.4961 81.8602 52.5488V52.5812C81.8602 52.6663 81.8278 52.719 81.763 52.7311C81.5239 52.7797 81.139 52.8243 80.6001 52.8648C80.0652 52.9053 79.7451 52.9337 79.6438 52.9459C79.5911 52.9459 79.5101 52.9175 79.3967 52.8608C79.3723 52.8365 79.348 52.8 79.3237 52.7433C79.2994 52.6865 79.2832 52.6379 79.2832 52.5933C79.2832 52.5528 79.3075 52.4839 79.3521 52.3908C79.3602 52.3745 79.5142 52.2003 79.8181 51.8681C79.891 51.787 80.0855 51.6128 80.3975 51.3332C80.7095 51.0536 80.9283 50.851 81.0498 50.7133C81.1714 50.5755 81.3861 50.3486 81.6941 50.0285C82.002 49.7084 82.2289 49.4612 82.3789 49.2829C82.5288 49.1047 82.6017 48.9791 82.6017 48.9061C82.6017 48.8575 82.5652 48.8372 82.4923 48.8372C82.4194 48.8372 82.3343 48.8575 82.2289 48.9021C82.1276 48.9466 82.0061 49.0115 81.8724 49.0966C81.5523 49.3032 81.2443 49.6111 80.9526 50.0244C80.9364 50.0366 80.9323 50.0609 80.9323 50.1014C80.9121 50.1501 80.8715 50.1906 80.8067 50.223C80.7419 50.2554 80.6892 50.2716 80.6487 50.2716C80.6082 50.2716 80.5596 50.2595 80.4988 50.2311C80.438 50.2068 80.3934 50.1784 80.3651 50.1501C80.3367 50.1217 80.3205 50.069 80.3205 49.992C80.3205 49.915 80.3651 49.8056 80.4502 49.6638C80.5352 49.522 80.6568 49.3721 80.8148 49.21C80.9728 49.052 81.143 48.898 81.3375 48.7562C81.528 48.6144 81.7427 48.4969 81.9818 48.3996C82.2208 48.3064 82.4194 48.2578 82.5855 48.2578C82.7516 48.2578 82.8732 48.2943 82.9542 48.3672C83.1001 48.5009 83.173 48.6508 83.173 48.8129C83.173 48.975 83.096 49.1776 82.9421 49.4167C82.7881 49.6557 82.5774 49.915 82.314 50.1987C82.0507 50.4823 81.7994 50.7416 81.5644 50.9766C81.3294 51.2076 81.066 51.4588 80.7784 51.7303C80.4907 52.0058 80.3083 52.176 80.2395 52.2489Z" fill="#1B3764"/>
<path d="M86.2523 48.8698C86.2564 48.9144 86.2401 49.0197 86.2118 49.1818C86.1834 49.3439 86.0862 49.5505 85.9241 49.7977C85.9281 49.8058 85.9282 49.8301 85.9322 49.8666C85.9363 49.903 85.9281 49.9557 85.916 50.0246C85.9038 50.0935 85.8471 50.2272 85.7539 50.4136C85.6567 50.604 85.5392 50.8107 85.3933 51.0335C85.2474 51.2564 85.0772 51.4833 84.8787 51.7102C84.6802 51.9371 84.4816 52.1437 84.2709 52.3301C84.0643 52.5165 83.8414 52.6664 83.6064 52.7839C83.3714 52.9014 83.1566 52.9622 82.9662 52.9622C82.7758 52.9622 82.6218 52.9055 82.5083 52.788C82.3949 52.6705 82.3301 52.5084 82.326 52.2977C82.3179 52.087 82.3706 51.8317 82.484 51.536C82.5975 51.2402 82.7474 50.9444 82.9338 50.6486C83.1202 50.3528 83.339 50.0611 83.5902 49.7734C83.8374 49.4857 84.0926 49.2304 84.3479 49.0116C84.6032 48.7928 84.8584 48.6145 85.1137 48.4768C85.369 48.339 85.5756 48.2742 85.7377 48.2742C85.8998 48.2742 86.0254 48.3309 86.1145 48.4443C86.1996 48.5538 86.2482 48.6956 86.2523 48.8698ZM83.0067 52.0141C83.0108 52.2126 83.0837 52.3099 83.2296 52.3099C83.3755 52.3099 83.5497 52.2288 83.7604 52.0627C84.121 51.7872 84.5424 51.3253 85.0246 50.681C84.8909 50.758 84.7855 50.7945 84.7045 50.7945C84.6234 50.7945 84.5627 50.7661 84.5221 50.7053C84.4816 50.6486 84.4573 50.5635 84.4533 50.4581C84.4492 50.3528 84.4857 50.2839 84.5627 50.2556C84.8706 50.134 85.1259 49.9476 85.3244 49.6923C85.523 49.4371 85.6162 49.194 85.6121 48.967C85.608 48.886 85.5513 48.8495 85.446 48.8495C85.3406 48.8495 85.1583 48.9589 84.9071 49.1777C84.6559 49.3965 84.4046 49.6599 84.1494 49.9679C83.8981 50.2758 83.6631 50.6081 83.4443 50.9646C83.2255 51.3212 83.0878 51.6251 83.0229 51.8763C83.0027 51.9209 83.0027 51.9655 83.0067 52.0141Z" fill="#1B3764"/>
<path d="M86.3498 52.2489C86.99 52.1233 87.4317 52.0585 87.6788 52.0585C87.772 52.0585 87.8206 52.0869 87.8369 52.1436C87.8409 52.1679 87.8531 52.1841 87.8733 52.1922C87.8936 52.2044 87.9138 52.253 87.9341 52.3381C87.9544 52.4232 87.9665 52.4961 87.9706 52.5488V52.5812C87.9706 52.6663 87.9381 52.719 87.8733 52.7311C87.6343 52.7797 87.2493 52.8243 86.7104 52.8648C86.1756 52.9053 85.8555 52.9337 85.7542 52.9459C85.7015 52.9459 85.6205 52.9175 85.507 52.8608C85.4827 52.8365 85.4584 52.8 85.4341 52.7433C85.4098 52.6865 85.3936 52.6379 85.3936 52.5933C85.3936 52.5528 85.4179 52.4839 85.4624 52.3908C85.4705 52.3745 85.6245 52.2003 85.9284 51.8681C86.0013 51.787 86.1958 51.6128 86.5078 51.3332C86.8198 51.0536 87.0386 50.851 87.1602 50.7133C87.2817 50.5755 87.4965 50.3486 87.8044 50.0285C88.1124 49.7084 88.3393 49.4612 88.4892 49.2829C88.6391 49.1047 88.7121 48.9791 88.7121 48.9061C88.7121 48.8575 88.6756 48.8372 88.6027 48.8372C88.5297 48.8372 88.4446 48.8575 88.3393 48.9021C88.238 48.9466 88.1164 49.0115 87.9827 49.0966C87.6626 49.3032 87.3547 49.6111 87.0629 50.0244C87.0467 50.0366 87.0427 50.0609 87.0427 50.1014C87.0224 50.1501 86.9819 50.1906 86.9171 50.223C86.8522 50.2554 86.7996 50.2716 86.759 50.2716C86.7185 50.2716 86.6699 50.2595 86.6091 50.2311C86.5483 50.2068 86.5038 50.1784 86.4754 50.1501C86.447 50.1217 86.4308 50.069 86.4308 49.992C86.4308 49.915 86.4754 49.8056 86.5605 49.6638C86.6456 49.522 86.7671 49.3721 86.9252 49.21C87.0832 49.052 87.2534 48.898 87.4479 48.7562C87.6383 48.6144 87.8531 48.4969 88.0921 48.3996C88.3312 48.3064 88.5297 48.2578 88.6959 48.2578C88.862 48.2578 88.9835 48.2943 89.0646 48.3672C89.2104 48.5009 89.2834 48.6508 89.2834 48.8129C89.2834 48.975 89.2064 49.1776 89.0524 49.4167C88.8985 49.6557 88.6878 49.915 88.4244 50.1987C88.161 50.4823 87.9098 50.7416 87.6748 50.9766C87.4398 51.2076 87.1764 51.4588 86.8887 51.7303C86.601 52.0058 86.4227 52.176 86.3498 52.2489Z" fill="#1B3764"/>
<path d="M92.3627 48.8698C92.3667 48.9144 92.3505 49.0197 92.3221 49.1818C92.2938 49.3439 92.1965 49.5505 92.0344 49.7977C92.0385 49.8058 92.0385 49.8301 92.0426 49.8666C92.0466 49.903 92.0385 49.9557 92.0263 50.0246C92.0142 50.0935 91.9575 50.2272 91.8643 50.4136C91.767 50.604 91.6495 50.8107 91.5037 51.0335C91.3578 51.2564 91.1876 51.4833 90.9891 51.7102C90.7905 51.9371 90.592 52.1437 90.3813 52.3301C90.1746 52.5165 89.9518 52.6664 89.7168 52.7839C89.4817 52.9014 89.267 52.9622 89.0766 52.9622C88.8861 52.9622 88.7322 52.9055 88.6187 52.788C88.5052 52.6705 88.4404 52.5084 88.4364 52.2977C88.4283 52.087 88.4809 51.8317 88.5944 51.536C88.7078 51.2402 88.8578 50.9444 89.0441 50.6486C89.2305 50.3528 89.4493 50.0611 89.7006 49.7734C89.9477 49.4857 90.203 49.2304 90.4583 49.0116C90.7135 48.7928 90.9688 48.6145 91.2241 48.4768C91.4793 48.339 91.686 48.2742 91.8481 48.2742C92.0101 48.2742 92.1357 48.3309 92.2249 48.4443C92.314 48.5538 92.3586 48.6956 92.3627 48.8698ZM89.1171 52.0141C89.1211 52.2126 89.1941 52.3099 89.3399 52.3099C89.4858 52.3099 89.66 52.2288 89.8707 52.0627C90.2314 51.7872 90.6527 51.3253 91.1349 50.681C91.0012 50.758 90.8959 50.7945 90.8148 50.7945C90.7338 50.7945 90.673 50.7661 90.6325 50.7053C90.592 50.6486 90.5677 50.5635 90.5636 50.4581C90.5596 50.3528 90.596 50.2839 90.673 50.2556C90.981 50.134 91.2362 49.9476 91.4348 49.6923C91.6333 49.4371 91.7265 49.194 91.7225 48.967C91.7184 48.886 91.6617 48.8495 91.5563 48.8495C91.451 48.8495 91.2686 48.9589 91.0174 49.1777C90.7662 49.3965 90.515 49.6599 90.2597 49.9679C90.0085 50.2758 89.7735 50.6081 89.5547 50.9646C89.3359 51.3212 89.1981 51.6251 89.1333 51.8763C89.1171 51.9209 89.113 51.9655 89.1171 52.0141Z" fill="#1B3764"/>
<path d="M20.2679 76.5728C20.2517 76.4472 20.2233 76.3257 20.1909 76.2041C20.1625 76.1028 20.1261 75.9894 20.0774 75.8718C20.0288 75.7543 19.9721 75.653 19.8951 75.5598C19.8343 75.4869 19.7776 75.4383 19.7209 75.414C19.6641 75.3897 19.6074 75.3978 19.5547 75.4423C19.5142 75.4748 19.494 75.5112 19.4899 75.5598C19.4859 75.6044 19.4899 75.6611 19.5102 75.726C19.5264 75.7908 19.5547 75.8637 19.5912 75.9488C19.6277 76.0339 19.6682 76.1312 19.7087 76.2406C19.7776 76.4108 19.8343 76.5728 19.8748 76.7227C19.9154 76.8727 19.9316 77.0185 19.9275 77.1522C19.9235 77.286 19.887 77.4156 19.8262 77.5372C19.7614 77.6587 19.6601 77.7762 19.5223 77.8897C19.344 78.0356 19.1658 78.1247 18.9915 78.1571C18.8173 78.1895 18.6471 78.1814 18.4891 78.1369C18.327 78.0882 18.1771 78.0112 18.0353 77.9018C17.8935 77.7924 17.7638 77.6709 17.6544 77.5331C17.5653 77.4237 17.4842 77.3062 17.4072 77.1766C17.3302 77.0469 17.2614 76.9132 17.2006 76.7754C17.1398 76.6377 17.0871 76.4999 17.0426 76.3581C16.998 76.2163 16.9656 76.0825 16.9453 75.9488L17.9502 75.7179C17.9664 75.8678 17.9988 76.0137 18.0353 76.1555C18.0677 76.277 18.1123 76.4107 18.169 76.5526C18.2257 76.6944 18.3027 76.824 18.3999 76.9375C18.4729 77.0266 18.5377 77.0793 18.5863 77.0955C18.639 77.1117 18.6836 77.1036 18.7241 77.0712C18.7646 77.0388 18.7889 76.9902 18.7889 76.9334C18.7889 76.8767 18.7768 76.8038 18.7484 76.7268C18.72 76.6458 18.6836 76.5566 18.6431 76.4594C18.6025 76.3621 18.558 76.2568 18.5175 76.1393C18.4567 75.9731 18.4121 75.8192 18.3837 75.6814C18.3594 75.5436 18.3513 75.418 18.3675 75.3046C18.3837 75.1911 18.4202 75.0817 18.481 74.9845C18.5418 74.8872 18.6269 74.794 18.7363 74.7049C18.9024 74.5712 19.0726 74.482 19.2468 74.4375C19.421 74.3929 19.5912 74.3929 19.7614 74.4253C19.9316 74.4618 20.0896 74.5266 20.2395 74.6239C20.3894 74.7211 20.5272 74.8427 20.6488 74.9926C20.7379 75.102 20.8149 75.2154 20.8757 75.337C20.9405 75.4585 20.9932 75.5801 21.0418 75.7017C21.0904 75.8232 21.1269 75.9448 21.1593 76.0582C21.1917 76.1717 21.216 76.277 21.2363 76.3702L20.2679 76.5728Z" fill="#1B3764"/>
<path d="M20.7051 80.8721L24.3477 78.9921L24.9798 79.5674L23.4563 83.3722L22.6297 82.6226L22.962 81.9094L22.2043 81.2206L21.5317 81.6258L20.7051 80.8721ZM23.9223 80.0901L22.7918 80.8033L23.3105 81.2733L23.9223 80.0901Z" fill="#1B3764"/>
<path d="M28.0268 84.393L26.9976 85.9773L26.1143 85.4019L28.205 82.1807L28.8939 82.6304L29.1248 85.1061L30.1864 83.4692L31.0697 84.0445L28.979 87.2658L28.278 86.8079L28.0268 84.393Z" fill="#1B3764"/>
<path d="M36.0859 90.6202L37.3056 86.9775L39.8015 87.8163L39.5098 88.6874L38.0106 88.185L37.808 88.7887L39.0276 89.198L38.7561 90.0084L37.5365 89.5991L37.0827 90.9525L36.0859 90.6202Z" fill="#1B3764"/>
<path d="M41.9131 92.306L42.5735 88.5215L44.3118 88.8254C44.4982 88.8578 44.6603 88.9267 44.8021 89.028C44.9439 89.1333 45.0614 89.2549 45.1546 89.3967C45.2438 89.5385 45.3086 89.6925 45.345 89.8627C45.3815 90.0328 45.3856 90.1949 45.3572 90.357C45.3207 90.5758 45.2356 90.7743 45.106 90.9486C44.9763 91.1228 44.8183 91.2525 44.6238 91.3457L45.2356 92.8854L44.0646 92.6828L43.546 91.3943L43.157 91.3254L42.9544 92.4883L41.9131 92.306ZM43.311 90.4178L43.9674 90.5312C44.0322 90.5434 44.0971 90.5191 44.1659 90.4542C44.2348 90.3935 44.2794 90.3003 44.2997 90.1706C44.324 90.0369 44.3078 89.9315 44.2551 89.8505C44.2024 89.7695 44.1457 89.7249 44.0809 89.7127L43.4528 89.6033L43.311 90.4178Z" fill="#1B3764"/>
<path d="M48.2422 93.1694L49.7414 89.3525L50.5963 89.3687L51.9578 93.2343L50.8435 93.214L50.6247 92.4563L49.6036 92.4401L49.3646 93.1897L48.2422 93.1694ZM50.1466 90.4587L49.7657 91.7391L50.4626 91.7513L50.1466 90.4587Z" fill="#1B3764"/>
<path d="M56.0741 90.986L56.3456 92.8539L55.3002 93.0079L54.7451 89.2072L55.5595 89.0897L57.3667 90.7996L57.0831 88.8669L58.1285 88.7129L58.6836 92.5136L57.8529 92.6351L56.0741 90.986Z" fill="#1B3764"/>
<path d="M61.5282 89.8547C61.4593 89.6318 61.4269 89.3968 61.439 89.1577C61.4512 88.9187 61.5039 88.6837 61.6011 88.4649C61.6984 88.2461 61.8402 88.0475 62.0266 87.8692C62.2129 87.695 62.4439 87.5613 62.7194 87.4722C63.0476 87.3668 63.3556 87.3506 63.6433 87.4195C63.935 87.4884 64.1741 87.6261 64.3686 87.8287L63.7729 88.6189C63.7121 88.5378 63.6514 88.477 63.5825 88.4365C63.5136 88.396 63.4447 88.3636 63.3758 88.3474C63.307 88.3312 63.2381 88.3271 63.1651 88.3352C63.0963 88.3433 63.0314 88.3555 62.9787 88.3717C62.8531 88.4122 62.7518 88.473 62.6789 88.5621C62.606 88.6472 62.5533 88.7445 62.5209 88.8579C62.4885 88.9673 62.4804 89.0848 62.4885 89.2104C62.4966 89.336 62.5209 89.4535 62.5574 89.567C62.5979 89.6926 62.6546 89.8101 62.7235 89.9155C62.7924 90.0208 62.8734 90.1099 62.9666 90.1788C63.0598 90.2477 63.157 90.2963 63.2664 90.3206C63.3758 90.345 63.4852 90.3369 63.6027 90.3004C63.6595 90.2801 63.7202 90.2558 63.777 90.2194C63.8337 90.1829 63.8864 90.1383 63.9309 90.0856C63.9755 90.033 64.012 89.9681 64.0404 89.8992C64.0687 89.8263 64.0849 89.7453 64.0849 89.6561L65.0614 89.8871C65.0533 90.037 65.0128 90.1829 64.9399 90.3206C64.8669 90.4625 64.7778 90.5881 64.6684 90.7015C64.559 90.815 64.4334 90.9163 64.2916 91.0014C64.1538 91.0865 64.012 91.1553 63.8661 91.1999C63.6108 91.2809 63.3596 91.3012 63.1125 91.2607C62.8653 91.2202 62.6384 91.1351 62.4277 91.0054C62.217 90.8758 62.0347 90.7096 61.8766 90.5111C61.7186 90.3125 61.6052 90.0897 61.5282 89.8547Z" fill="#1B3764"/>
<path d="M68.461 89.3853L66.8281 85.9087L67.7844 85.459L69.4173 88.9355L68.461 89.3853Z" fill="#1B3764"/>
<path d="M73.206 83.7894C73.0804 83.7934 72.9548 83.8056 72.8292 83.8218C72.7239 83.838 72.6104 83.8623 72.4888 83.8948C72.3673 83.9272 72.2579 83.9758 72.1606 84.0366C72.0837 84.0852 72.0269 84.1379 71.9945 84.1946C71.9621 84.2473 71.9661 84.304 72.0026 84.3648C72.031 84.4093 72.0674 84.4337 72.112 84.4418C72.1566 84.4499 72.2133 84.4499 72.2781 84.4418C72.343 84.4296 72.42 84.4134 72.5091 84.3891C72.5982 84.3648 72.6995 84.3364 72.813 84.304C72.9913 84.2554 73.1574 84.2189 73.3114 84.1986C73.4653 84.1784 73.6112 84.1743 73.7449 84.1946C73.8786 84.2148 74.0002 84.2635 74.1137 84.3405C74.2271 84.4174 74.3325 84.5309 74.4297 84.6849C74.5553 84.8794 74.6242 85.0658 74.6364 85.244C74.6485 85.4223 74.6242 85.5884 74.5553 85.7424C74.4864 85.8964 74.3932 86.0382 74.2676 86.1679C74.142 86.2975 74.0043 86.4069 73.8543 86.5042C73.7368 86.5812 73.6072 86.65 73.4735 86.7108C73.3357 86.7716 73.1979 86.8243 73.0521 86.8688C72.9062 86.9134 72.7644 86.9499 72.6185 86.9782C72.4767 87.0066 72.3349 87.0228 72.2012 87.0269L72.0877 86.0017C72.2376 86.0017 72.3835 85.9896 72.5334 85.9693C72.659 85.9531 72.7968 85.9248 72.9427 85.8802C73.0885 85.8397 73.2263 85.7748 73.3519 85.6938C73.4491 85.633 73.5099 85.5763 73.5302 85.5236C73.5504 85.475 73.5504 85.4264 73.5221 85.3858C73.4937 85.3413 73.4491 85.3129 73.3924 85.3048C73.3357 85.2967 73.2628 85.3048 73.1817 85.321C73.1007 85.3413 73.0075 85.3656 72.9062 85.394C72.8049 85.4223 72.6955 85.4547 72.5739 85.4831C72.3997 85.5277 72.2417 85.552 72.1039 85.5601C71.9661 85.5682 71.8365 85.5601 71.7271 85.5317C71.6136 85.5034 71.5123 85.4547 71.4232 85.3818C71.3341 85.3129 71.249 85.2157 71.172 85.0982C71.0585 84.9199 70.9896 84.7416 70.9694 84.5593C70.9491 84.3769 70.9653 84.2108 71.018 84.0487C71.0707 83.8866 71.1558 83.7327 71.2692 83.5949C71.3827 83.4571 71.5204 83.3356 71.6825 83.2302C71.8 83.1533 71.9256 83.0925 72.0512 83.0438C72.1769 82.9952 72.3065 82.9547 72.4321 82.9223C72.5577 82.8899 72.6833 82.8656 72.8008 82.8494C72.9183 82.8332 73.0237 82.8169 73.1209 82.8088L73.206 83.7894Z" fill="#1B3764"/>
<path d="M76.4229 82.2292C76.2689 82.051 76.1474 81.8524 76.0623 81.6255C75.9731 81.3986 75.9326 81.1676 75.9326 80.9245C75.9326 80.6814 75.9853 80.4464 76.0825 80.2114C76.1798 79.9764 76.3419 79.7616 76.5607 79.5712C76.82 79.3443 77.0955 79.2065 77.3873 79.1539C77.679 79.1012 77.9586 79.1295 78.2138 79.2389L77.9829 80.2033C77.8978 80.1547 77.8127 80.1223 77.7317 80.1101C77.6506 80.0979 77.5777 80.0979 77.5088 80.1101C77.4399 80.1223 77.3751 80.1466 77.3103 80.183C77.2454 80.2195 77.1968 80.2519 77.1522 80.2924C77.0509 80.3816 76.9861 80.4788 76.9537 80.5842C76.9213 80.6895 76.9132 80.803 76.9294 80.9164C76.9456 81.0299 76.9821 81.1433 77.0388 81.2527C77.0955 81.3621 77.1644 81.4634 77.2414 81.5526C77.3305 81.6539 77.4278 81.739 77.5331 81.8078C77.6385 81.8767 77.7479 81.9254 77.8613 81.9537C77.9748 81.9821 78.0842 81.9821 78.1936 81.9618C78.303 81.9416 78.4043 81.8889 78.4934 81.8078C78.538 81.7673 78.5826 81.7187 78.619 81.666C78.6555 81.6093 78.6879 81.5485 78.7082 81.4837C78.7284 81.4148 78.7365 81.3459 78.7325 81.2649C78.7284 81.1879 78.7122 81.1069 78.6758 81.0258L79.6604 80.8475C79.713 80.9894 79.7333 81.1393 79.7252 81.2933C79.7171 81.4472 79.6847 81.6012 79.628 81.7511C79.5712 81.901 79.4983 82.0429 79.4051 82.1766C79.3119 82.3103 79.2066 82.4278 79.0931 82.5291C78.8905 82.7033 78.6717 82.8249 78.4286 82.8857C78.1855 82.9464 77.9424 82.9586 77.6992 82.9262C77.4561 82.8897 77.2211 82.8127 76.9942 82.6912C76.7795 82.5656 76.585 82.4156 76.4229 82.2292Z" fill="#1B3764"/>
<path d="M83.6847 77.8213C83.5105 78.032 83.3079 78.186 83.0769 78.2873C82.846 78.3886 82.611 78.4413 82.3678 78.4494C82.1247 78.4575 81.8857 78.417 81.6466 78.3359C81.4116 78.2549 81.1968 78.1333 81.0064 77.9713C80.8119 77.8092 80.6539 77.6187 80.5323 77.3959C80.4108 77.1771 80.3338 76.9421 80.3054 76.703C80.2771 76.464 80.2892 76.2208 80.354 75.9777C80.4189 75.7387 80.5364 75.5118 80.7066 75.3051C80.8808 75.0944 81.0874 74.9404 81.3143 74.8391C81.5453 74.7378 81.7803 74.6852 82.0275 74.6771C82.2706 74.673 82.5097 74.7095 82.7487 74.7946C82.9837 74.8797 83.1944 74.9972 83.3849 75.1552C83.5794 75.3173 83.7374 75.5077 83.8549 75.7265C83.9724 75.9453 84.0494 76.1763 84.0818 76.4153C84.1142 76.6544 84.098 76.8975 84.0372 77.1406C83.9764 77.3878 83.8589 77.6106 83.6847 77.8213ZM81.7033 77.1568C81.8046 77.2419 81.91 77.3108 82.0234 77.3635C82.1369 77.4161 82.2503 77.4486 82.3638 77.4607C82.4772 77.4729 82.5866 77.4567 82.696 77.4202C82.8014 77.3837 82.8986 77.3148 82.9797 77.2135C83.0648 77.1123 83.1174 77.0028 83.1336 76.8894C83.1499 76.7759 83.1418 76.6665 83.1093 76.5571C83.0769 76.4477 83.0202 76.3424 82.9473 76.2411C82.8743 76.1398 82.7852 76.0466 82.692 75.9656C82.5907 75.8805 82.4853 75.8156 82.3719 75.763C82.2584 75.7103 82.145 75.6779 82.0356 75.6698C81.9262 75.6576 81.8168 75.6738 81.7114 75.7143C81.6061 75.7549 81.5129 75.8237 81.4278 75.921C81.3427 76.0223 81.29 76.1317 81.2738 76.2411C81.2576 76.3505 81.2657 76.4599 81.2981 76.5693C81.3306 76.6787 81.3832 76.784 81.4562 76.8853C81.5291 76.9866 81.6061 77.0758 81.7033 77.1568Z" fill="#1B3764"/>
<path d="M14.8585 34.0685C14.9112 33.951 14.9274 33.8456 14.9112 33.7403C14.895 33.6349 14.8585 33.5417 14.7977 33.4526C14.737 33.3675 14.6559 33.2865 14.5587 33.2135C14.4614 33.1406 14.352 33.0798 14.2345 33.0271L12.3787 32.2087L12.8164 31.2159L14.6721 32.0344C14.9233 32.1438 15.1421 32.2816 15.3326 32.4437C15.523 32.6057 15.6689 32.7881 15.7661 32.9947C15.8674 33.2014 15.9161 33.4283 15.9161 33.6714C15.9161 33.9186 15.8553 34.1779 15.7337 34.4575C15.6081 34.7451 15.4501 34.9721 15.2637 35.1341C15.0773 35.2962 14.8707 35.4056 14.6519 35.4664C14.4331 35.5272 14.1981 35.5393 13.959 35.5069C13.7159 35.4745 13.4768 35.4016 13.2337 35.2962L11.3779 34.4777L11.8155 33.485L13.6713 34.3035C13.7888 34.3562 13.9104 34.3967 14.0319 34.421C14.1535 34.4453 14.2669 34.4494 14.3723 34.4372C14.4776 34.425 14.5708 34.3886 14.6559 34.3278C14.741 34.2711 14.8099 34.1819 14.8585 34.0685Z" fill="#1B3764"/>
<path d="M18.0111 29.9838L14.7412 27.7796L15.7542 26.2763C15.8636 26.1183 15.9932 25.9927 16.1513 25.8995C16.3093 25.8104 16.4714 25.7496 16.6456 25.7253C16.8158 25.701 16.99 25.705 17.1642 25.7415C17.3385 25.778 17.4965 25.8428 17.6343 25.936C17.8247 26.0656 17.9746 26.2237 18.084 26.4182C18.1934 26.6126 18.2502 26.8193 18.2542 27.034L19.952 27.107L19.2672 28.12L17.845 28.0632L17.6181 28.3995L18.6229 29.0762L18.0111 29.9838ZM16.832 27.8768L17.2129 27.3096C17.2493 27.2529 17.2534 27.184 17.225 27.0948C17.1967 27.0057 17.1237 26.9246 17.0143 26.8477C16.9009 26.7707 16.7955 26.7383 16.6983 26.7545C16.601 26.7707 16.5322 26.8031 16.4957 26.8598L16.131 27.4028L16.832 27.8768Z" fill="#1B3764"/>
<path d="M23.428 21.7064C23.5577 21.828 23.6387 21.9617 23.6833 22.1035C23.7238 22.2453 23.7279 22.3912 23.6995 22.5411C23.6671 22.691 23.6063 22.8409 23.5172 22.9909C23.428 23.1408 23.3146 23.2866 23.1809 23.4244L21.8356 24.8223L18.9912 22.0873L20.5796 20.4382C20.6728 20.3409 20.7822 20.272 20.9037 20.2315C21.0212 20.191 21.1428 20.1788 21.2643 20.1869C21.3859 20.195 21.5034 20.2275 21.6209 20.2801C21.7384 20.3328 21.8397 20.4017 21.9329 20.4908C22.0666 20.6205 22.1598 20.7745 22.2165 20.9609C22.2733 21.1472 22.2651 21.3377 22.1963 21.5322C22.3989 21.4147 22.6096 21.366 22.8162 21.3863C23.0229 21.4066 23.2254 21.516 23.428 21.7064ZM20.4013 21.9495L20.8389 22.3709L21.3494 21.8401C21.4021 21.7874 21.4345 21.7226 21.4467 21.6497C21.4588 21.5767 21.4224 21.4998 21.3332 21.4147C21.2562 21.3417 21.1833 21.3053 21.1144 21.3093C21.0455 21.3134 20.9847 21.3417 20.9361 21.3944L20.4013 21.9495ZM22.5042 22.3466C22.4353 22.2777 22.3583 22.2413 22.2773 22.2332C22.1963 22.225 22.1233 22.2494 22.0666 22.3101L21.4467 22.9544L21.9248 23.4123L22.5164 22.7964C22.5771 22.7315 22.6096 22.6586 22.6136 22.5776C22.6177 22.4965 22.5812 22.4195 22.5042 22.3466Z" fill="#1B3764"/>
<path d="M26.1269 20.6606L24.96 16.6128L25.665 16.0901L29.1942 18.3835L28.2744 19.0642L27.6221 18.5861L26.7793 19.2101L27.0507 19.9678L26.1269 20.6606ZM25.9851 17.257L26.4794 18.5374L27.0548 18.112L25.9851 17.257Z" fill="#1B3764"/>
<path d="M31.7918 14.6561L32.6548 16.3944L31.6824 16.8766L29.9238 13.3433L30.6815 12.9665L32.9952 14.0565L32.0997 12.2615L33.0681 11.7793L34.8266 15.3126L34.0568 15.6975L31.7918 14.6561Z" fill="#1B3764"/>
<path d="M44.7977 11.475C44.8301 11.6492 44.8179 11.8073 44.7693 11.945C44.7207 12.0828 44.6356 12.2044 44.5221 12.3097C44.4087 12.411 44.2709 12.5001 44.1088 12.569C43.9468 12.6379 43.7685 12.6906 43.5821 12.723L41.6736 13.0674L40.9727 9.18569L43.2255 8.7805C43.3592 8.75619 43.4889 8.76429 43.6064 8.80076C43.728 8.83722 43.8333 8.898 43.9265 8.97904C44.0197 9.06008 44.0967 9.15327 44.1615 9.26268C44.2263 9.37208 44.2669 9.48958 44.2912 9.61519C44.3236 9.79753 44.3074 9.97986 44.2466 10.1622C44.1818 10.3445 44.0683 10.4945 43.8941 10.612C44.1291 10.6363 44.3236 10.7214 44.4857 10.8591C44.6437 10.9969 44.749 11.2035 44.7977 11.475ZM42.2044 9.89882L42.3138 10.4945L43.0391 10.3648C43.1121 10.3526 43.1769 10.3202 43.2296 10.2675C43.2822 10.2149 43.2984 10.1298 43.2782 10.0123C43.2579 9.90693 43.2215 9.83399 43.1607 9.79753C43.0999 9.76106 43.0351 9.7489 42.9662 9.76106L42.2044 9.89882ZM43.6753 11.4507C43.6591 11.3575 43.6185 11.2805 43.5578 11.2278C43.4929 11.1752 43.4241 11.1509 43.343 11.1671L42.4638 11.3251L42.5813 11.9774L43.4241 11.8275C43.5132 11.8113 43.5821 11.7708 43.6307 11.706C43.6753 11.6371 43.6915 11.5561 43.6753 11.4507Z" fill="#1B3764"/>
<path d="M49.7251 12.2287C49.4455 12.2287 49.1862 12.172 48.9552 12.0585C48.7243 11.9451 48.5257 11.7952 48.3596 11.6088C48.1935 11.4224 48.0638 11.2076 47.9747 10.9686C47.8815 10.7295 47.8369 10.4783 47.8369 10.223C47.8369 9.96371 47.8815 9.71249 47.9747 9.47343C48.0679 9.23436 48.2016 9.01961 48.3718 8.83728C48.5419 8.65089 48.7405 8.50502 48.9714 8.39562C49.2024 8.28622 49.4577 8.22949 49.7332 8.22949C50.0168 8.22949 50.2721 8.28622 50.5031 8.39967C50.734 8.51313 50.9326 8.6671 51.0987 8.85349C51.2648 9.03987 51.3904 9.25462 51.4836 9.49774C51.5728 9.7368 51.6173 9.98397 51.6214 10.2352C51.6214 10.4945 51.5768 10.7457 51.4836 10.9848C51.3904 11.2238 51.2608 11.4345 51.0946 11.6209C50.9285 11.8033 50.73 11.9532 50.495 12.0666C50.26 12.172 50.0047 12.2287 49.7251 12.2287ZM48.935 10.2311C48.935 10.3648 48.9512 10.4945 48.9836 10.6161C49.016 10.7376 49.0646 10.8511 49.1335 10.9443C49.2024 11.0415 49.2834 11.1185 49.3847 11.1752C49.486 11.236 49.6035 11.2644 49.7332 11.2644C49.871 11.2644 49.9885 11.232 50.0898 11.1712C50.1911 11.1104 50.2721 11.0294 50.3329 10.9321C50.3937 10.8349 50.4423 10.7214 50.4747 10.5958C50.5071 10.4702 50.5193 10.3405 50.5193 10.2109C50.5193 10.0772 50.5031 9.9475 50.4666 9.82594C50.4342 9.70033 50.3815 9.59093 50.3167 9.49774C50.2518 9.40454 50.1668 9.32756 50.0695 9.27083C49.9682 9.2141 49.8507 9.18574 49.717 9.18574C49.5792 9.18574 49.4617 9.21816 49.3645 9.27488C49.2672 9.33566 49.1862 9.41265 49.1214 9.51395C49.0565 9.61119 49.0079 9.72464 48.9796 9.8462C48.9471 9.97586 48.935 10.1015 48.935 10.2311Z" fill="#1B3764"/>
<path d="M56.342 12.7876C56.0665 12.739 55.8234 12.6377 55.6127 12.4837C55.406 12.3297 55.2358 12.1474 55.1062 11.9367C54.9765 11.726 54.8874 11.491 54.8387 11.2398C54.7901 10.9886 54.7901 10.7333 54.8347 10.4821C54.8793 10.2268 54.9684 9.98774 55.1021 9.76894C55.2358 9.54609 55.406 9.36375 55.6046 9.20978C55.8031 9.05581 56.026 8.95046 56.2731 8.88157C56.5203 8.81269 56.7796 8.80459 57.0551 8.85321C57.3307 8.90183 57.5738 9.00313 57.7845 9.1571C57.9911 9.31108 58.1613 9.49341 58.291 9.70816C58.4206 9.92291 58.5098 10.1579 58.5543 10.4091C58.5989 10.6604 58.603 10.9116 58.5584 11.1587C58.5138 11.414 58.4247 11.6531 58.291 11.8719C58.1573 12.0907 57.9911 12.2771 57.7966 12.427C57.6021 12.5769 57.3793 12.6904 57.1281 12.7592C56.8769 12.8281 56.6135 12.8362 56.342 12.7876ZM55.9166 10.6847C55.8922 10.8143 55.8882 10.944 55.8963 11.0737C55.9044 11.1993 55.9368 11.3168 55.9854 11.4262C56.0341 11.5315 56.1029 11.6247 56.1921 11.6976C56.2812 11.7746 56.3906 11.8233 56.5203 11.8476C56.654 11.8719 56.7756 11.8597 56.885 11.8192C56.9944 11.7787 57.0876 11.7098 57.1686 11.6247C57.2496 11.5396 57.3145 11.4383 57.3671 11.3168C57.4198 11.1993 57.4563 11.0737 57.4806 10.948C57.5049 10.8184 57.5089 10.6887 57.4968 10.5591C57.4846 10.4294 57.4563 10.3159 57.4077 10.2106C57.359 10.1052 57.2901 10.0161 57.2051 9.94317C57.1159 9.87024 57.0065 9.82162 56.8769 9.7973C56.7431 9.77299 56.6216 9.7811 56.5122 9.82567C56.4068 9.86619 56.3096 9.93102 56.2286 10.0161C56.1475 10.1012 56.0827 10.2025 56.03 10.32C55.9733 10.4335 55.9368 10.555 55.9166 10.6847Z" fill="#1B3764"/>
<path d="M61.1836 13.9018L62.5288 10.1943L63.5459 10.5631L62.9948 12.0785L64.7776 11.0088L65.823 11.3896L63.8741 12.5606L64.571 15.1336L63.5053 14.7487L63.0637 12.9172L62.5977 13.1725L62.1966 14.2746L61.1836 13.9018Z" fill="#1B3764"/>
<path d="M70.4706 15.2105C70.4058 15.097 70.3369 14.9917 70.2599 14.8863C70.1951 14.7972 70.1181 14.708 70.0289 14.6108C69.9398 14.5176 69.8425 14.4406 69.7412 14.3798C69.6562 14.3312 69.5832 14.3069 69.5184 14.3069C69.4536 14.3069 69.4049 14.3353 69.3685 14.396C69.3442 14.4406 69.3361 14.4852 69.3482 14.5297C69.3604 14.5743 69.3887 14.627 69.4293 14.6797C69.4698 14.7364 69.5224 14.7972 69.5913 14.862C69.6562 14.9309 69.7331 15.0079 69.8142 15.097C69.9438 15.2348 70.0573 15.3685 70.1505 15.4982C70.2437 15.6278 70.3166 15.7575 70.3612 15.8871C70.4058 16.0168 70.422 16.1505 70.4058 16.2923C70.3895 16.4341 70.3369 16.5841 70.2477 16.7461C70.1302 16.9528 69.9965 17.1027 69.8385 17.204C69.6845 17.3012 69.5184 17.358 69.3482 17.3701C69.178 17.3823 69.0038 17.3661 68.8255 17.3134C68.6472 17.2607 68.4811 17.1918 68.3231 17.1027C68.1975 17.0338 68.0719 16.9487 67.9503 16.8555C67.8287 16.7623 67.7153 16.661 67.6018 16.5516C67.4924 16.4422 67.3871 16.3288 67.2939 16.2113C67.2007 16.0938 67.1197 15.9763 67.0508 15.8588L67.926 15.2591C67.9989 15.3928 68.08 15.5225 68.1732 15.6481C68.2501 15.7534 68.3433 15.8628 68.4487 15.9763C68.5581 16.0897 68.6796 16.1829 68.8134 16.2599C68.9147 16.3166 68.9957 16.345 69.0524 16.3409C69.1091 16.3369 69.1497 16.3126 69.174 16.268C69.2023 16.2194 69.2064 16.1667 69.1821 16.11C69.1618 16.0533 69.1213 15.9925 69.0646 15.9277C69.0079 15.8628 68.943 15.7899 68.862 15.7129C68.785 15.6359 68.704 15.5508 68.6229 15.4536C68.5014 15.3158 68.4001 15.1862 68.3271 15.0646C68.2501 14.943 68.1975 14.8255 68.1732 14.708C68.1448 14.5905 68.1407 14.4771 68.161 14.3596C68.1813 14.2421 68.2299 14.1246 68.2988 13.9989C68.4041 13.8085 68.5338 13.6626 68.6878 13.5532C68.8377 13.4479 69.0038 13.379 69.178 13.3506C69.3523 13.3223 69.5305 13.3263 69.7129 13.3628C69.8952 13.3993 70.0695 13.4641 70.2396 13.5613C70.3652 13.6343 70.4827 13.7153 70.5881 13.8045C70.6934 13.8977 70.7907 13.9908 70.8839 14.0921C70.9771 14.1934 71.0541 14.2907 71.127 14.3879C71.1999 14.4852 71.2648 14.5784 71.3174 14.6594L70.4706 15.2105Z" fill="#1B3764"/>
<path d="M76.4921 19.1491L75.6088 18.436L73.7246 20.7739L72.8818 20.0932L74.766 17.7553L73.8786 17.0421L74.4702 16.3047L77.0837 18.4117L76.4921 19.1491Z" fill="#1B3764"/>
<path d="M77.8087 24.781C77.6223 24.5703 77.4927 24.3434 77.4238 24.0922C77.3549 23.841 77.3346 23.5938 77.363 23.3467C77.3914 23.0995 77.4643 22.8604 77.5859 22.6335C77.7034 22.4066 77.8573 22.204 78.0518 22.0338C78.2463 21.8596 78.4611 21.7299 78.7042 21.6368C78.9473 21.5476 79.1945 21.503 79.4416 21.5071C79.6928 21.5111 79.936 21.5638 80.171 21.6611C80.406 21.7624 80.6167 21.9163 80.8031 22.1189C80.9894 22.3296 81.1191 22.5565 81.188 22.8077C81.2569 23.0549 81.2771 23.3061 81.2447 23.5533C81.2123 23.8005 81.1394 24.0395 81.0178 24.2664C80.8963 24.4933 80.7423 24.6919 80.5559 24.858C80.3614 25.0322 80.1467 25.1619 79.9035 25.251C79.6604 25.3402 79.4173 25.3848 79.1701 25.3807C78.923 25.3807 78.6799 25.328 78.4408 25.2267C78.2058 25.1416 77.9951 24.9877 77.8087 24.781ZM78.7771 22.8645C78.6758 22.9536 78.5907 23.0509 78.5218 23.1562C78.4489 23.2616 78.4003 23.371 78.3719 23.4885C78.3436 23.6019 78.3436 23.7154 78.3638 23.8288C78.3881 23.9423 78.4408 24.0517 78.5299 24.1489C78.6191 24.2502 78.7244 24.3191 78.8338 24.3515C78.9432 24.3839 79.0607 24.392 79.1742 24.3758C79.2876 24.3596 79.4052 24.3191 79.5186 24.2583C79.6321 24.1976 79.7374 24.1246 79.8347 24.0395C79.9319 23.9504 80.017 23.8531 80.0899 23.7437C80.1588 23.6343 80.2074 23.5249 80.2358 23.4155C80.2642 23.3061 80.2642 23.1927 80.2398 23.0792C80.2155 22.9658 80.1588 22.8604 80.0697 22.7591C79.9765 22.6578 79.8792 22.5889 79.7658 22.5565C79.6564 22.5241 79.5429 22.516 79.4254 22.5322C79.3079 22.5484 79.1945 22.5889 79.081 22.6457C78.9797 22.7065 78.8744 22.7753 78.7771 22.8645Z" fill="#1B3764"/>
<path d="M80.917 28.6798L84.2801 26.6133L85.2282 28.1571C85.3295 28.3191 85.3903 28.4934 85.4065 28.6757C85.4227 28.858 85.4106 29.0282 85.3619 29.1943C85.3133 29.3605 85.2363 29.5144 85.131 29.6603C85.0256 29.8021 84.9 29.9196 84.7582 30.0047C84.5637 30.1263 84.353 30.1952 84.1342 30.2114C83.9154 30.2276 83.7007 30.1952 83.5021 30.1101L82.7322 31.6295L82.092 30.5882L82.7322 29.3159L82.5215 28.9715L81.4883 29.6076L80.917 28.6798ZM83.3198 28.4731L83.6763 29.0566C83.7128 29.1133 83.7776 29.1457 83.8708 29.1579C83.964 29.166 84.0653 29.1376 84.1828 29.0687C84.3003 28.9958 84.3692 28.9148 84.3976 28.8175C84.4259 28.7243 84.4219 28.6473 84.3854 28.5906L84.041 28.0314L83.3198 28.4731Z" fill="#1B3764"/>
<path d="M85.9572 36.5442L85.082 36.9007L84.0244 34.2954L87.6833 32.8124L88.7206 35.3732L87.8454 35.7297L87.2133 34.1738L86.6987 34.3845L87.2376 35.7135L86.4231 36.0417L85.8842 34.7127L85.3089 34.9477L85.9572 36.5442Z" fill="#1B3764"/>
<path d="M65.803 50.2353C65.7706 50.1178 65.6328 49.9841 65.4829 50.0368C64.0364 50.5108 62.5817 50.3163 61.1636 50.1218C60.8192 50.0732 60.4585 50.0287 60.1101 49.9881C59.3524 49.9071 58.3515 49.8423 57.3507 50.0449C56.3175 50.2556 55.2721 50.762 54.0565 51.6413C53.7769 51.8439 53.4933 52.0587 53.2097 52.2815C53.6149 50.5108 54.016 48.7401 54.486 46.9816L54.5549 46.8803C55.341 46.4751 56.1595 46.3171 57.0711 46.1631C58.0071 46.0092 58.9269 45.8349 59.8508 45.4338C61.435 44.745 63.0234 43.5375 64.8589 41.625C65.7463 40.6971 66.585 39.7287 67.363 38.8089C67.4481 38.7076 67.4643 38.5699 67.4035 38.4726C67.3387 38.3713 67.1604 38.3024 67.0186 38.4118C65.6085 39.4978 64.0121 39.9313 62.4642 40.3568C62.0874 40.4621 61.6944 40.5675 61.3135 40.6809C60.491 40.9281 59.4172 41.2927 58.4083 41.9208C57.375 42.5691 56.3985 43.5091 55.341 44.8787C55.1992 45.061 55.0573 45.2515 54.9155 45.4419C55.576 43.2255 56.3945 41.0415 57.5047 39.0156C57.5533 38.9264 57.6019 38.8413 57.6506 38.7563C57.6911 38.6914 57.7397 38.6387 57.8005 38.5942L57.8045 38.582C58.4974 37.9418 59.3118 37.5204 60.2276 37.0747C61.1676 36.6168 62.0833 36.1509 62.9221 35.4661C64.3646 34.2951 65.6369 32.6338 66.9294 30.2392C67.5575 29.0763 68.1085 27.8891 68.6231 26.7748C68.6798 26.6492 68.6515 26.5155 68.5542 26.4466C68.457 26.3777 68.2503 26.3736 68.1369 26.5195C67.0145 28.0025 65.4748 28.9425 63.9715 29.8542C63.6069 30.0771 63.23 30.308 62.8654 30.539C62.0793 31.0455 61.0623 31.7424 60.2114 32.6662C59.3362 33.6184 58.623 34.8219 57.9707 36.4548C57.7397 37.0342 57.5169 37.642 57.3102 38.266C57.2981 38.2903 57.2818 38.3105 57.2697 38.3349C57.2656 38.3389 57.2656 38.3389 57.2616 38.343C57.2211 38.3835 57.1927 38.4362 57.1805 38.4888C56.7389 39.2668 56.3377 40.0731 55.9771 40.8916C55.9812 40.8227 55.9893 40.7538 55.9974 40.689C56.1392 38.9629 56.0541 37.6136 55.7259 36.4345C55.4058 35.2919 54.8588 34.2992 54.4171 33.5617C54.2146 33.2214 53.9957 32.8769 53.781 32.5406C52.926 31.1873 52.0387 29.7934 51.7307 28.039C51.6983 27.8607 51.52 27.7959 51.4025 27.8242C51.2891 27.8526 51.208 27.966 51.204 28.0997C51.1635 29.3032 51.127 30.5836 51.1594 31.868C51.2283 34.5139 51.5889 36.4791 52.294 38.0553C52.7072 38.9751 53.2664 39.7206 53.858 40.4702C54.4293 41.1955 54.9317 41.8681 55.2356 42.6947L55.2275 42.7636C54.9236 43.5821 54.6522 44.4087 54.4009 45.2393C54.1619 46.0335 53.9431 46.8317 53.7364 47.634C53.7121 47.4881 53.6878 47.3422 53.6594 47.1964C53.392 45.7985 52.9828 44.745 52.3669 43.8738C51.7713 43.031 50.9811 42.3503 50.3612 41.856C50.0735 41.625 49.7737 41.3981 49.4738 41.1712C48.2866 40.2676 47.0589 39.3357 46.3295 38.0107C46.2566 37.881 46.0702 37.8608 45.9649 37.9054C45.9082 37.9297 45.8636 37.9742 45.8352 38.0269C45.8109 38.0796 45.8028 38.1404 45.819 38.1971C46.0662 39.1574 46.3336 40.1785 46.674 41.1915C47.3749 43.2741 48.2096 44.7612 49.2996 45.8714C49.9357 46.5197 50.6813 46.9978 51.4512 47.4759C52.2008 47.9379 52.8653 48.3714 53.3718 48.967L53.3839 49.0643C53.0679 50.3731 52.7761 51.6859 52.4763 52.9946C52.3223 53.6592 52.1683 54.3237 52.0063 54.9841C52.0022 54.972 52.0022 54.9558 51.9982 54.9436C51.7875 53.7645 51.4593 52.8771 50.9568 52.1478C50.4706 51.4387 49.8223 50.8714 49.3117 50.4581C49.0767 50.2677 48.8336 50.0773 48.5946 49.8949L48.5865 49.8868C47.614 49.1372 46.6091 48.3593 46.0216 47.2531C45.9568 47.1315 45.7906 47.1194 45.7015 47.1599C45.6002 47.2045 45.5435 47.3179 45.5678 47.4273C45.7623 48.2337 45.977 49.0967 46.2485 49.9436C46.8117 51.698 47.4884 52.946 48.3798 53.8739C48.8985 54.4169 49.5143 54.8139 50.1464 55.211C50.7299 55.5757 51.2486 55.9161 51.6497 56.3739C51.2648 57.8286 50.8312 59.2751 50.3085 60.6892C49.5184 62.8205 48.5054 64.8748 47.2048 66.7103C45.9527 68.4729 44.4252 70.0126 42.6909 71.1107C42.4681 71.2525 42.2371 71.3862 42.0102 71.5159C41.8887 71.5848 41.8806 71.7347 41.9657 71.8157C42.0669 71.913 42.2412 71.913 42.3668 71.84C44.178 70.8392 45.7988 69.3805 47.148 67.6544C48.4892 65.9364 49.567 63.9875 50.4098 61.9453C51.4349 59.4574 52.14 56.8561 52.7599 54.2548C52.845 53.9023 52.926 53.5457 53.0111 53.1932C53.7445 53.1284 54.4577 53.2864 55.2397 53.4809C56.0744 53.6916 56.8969 53.878 57.7762 53.8496C59.2835 53.8091 60.9164 53.2823 62.918 52.2005C63.8864 51.6737 64.8224 51.0862 65.6976 50.5311C65.7868 50.4784 65.8354 50.3528 65.803 50.2353ZM62.4683 43.1445C61.6133 43.8495 60.7705 44.4046 59.9601 44.7895C59.0039 45.2474 58.0517 45.4459 57.2494 45.5797L57.1076 45.604C56.6781 45.6769 56.204 45.7539 55.73 45.8714C56.8564 45.0813 58.0841 44.595 59.2511 44.1696L59.6441 44.0278C60.341 43.7766 61.0582 43.5132 61.7632 43.1971C62.371 42.9216 62.9302 42.6177 63.4529 42.2733C63.1206 42.5894 62.7924 42.877 62.4683 43.1445ZM58.4002 42.5691C59.7292 41.6615 61.196 41.2603 62.6141 40.8754C63.1166 40.7376 63.6312 40.5999 64.1377 40.4378C64.5996 40.2919 65.0169 40.1339 65.4019 39.9678C64.9886 40.3689 64.5915 40.7255 64.1944 41.0537C63.4569 41.6655 62.6506 42.1801 61.7997 42.5812C61.038 42.9419 60.2478 43.2296 59.4861 43.5051C58.6271 43.8171 57.7397 44.1412 56.8767 44.5707C56.4755 44.7693 56.1068 44.98 55.7583 45.2069C56.4147 44.356 57.3224 43.3065 58.4002 42.5691ZM64.9359 32.4555C64.2714 33.3996 63.5663 34.1979 62.8451 34.83C61.9861 35.5796 61.0501 36.082 60.2438 36.475L60.102 36.5439C59.6563 36.7587 59.17 36.9977 58.6919 37.2773C59.6198 36.1509 60.7624 35.2797 61.8645 34.4855C61.978 34.4045 62.0915 34.3235 62.2049 34.2424L62.2333 34.2222C62.8856 33.7562 63.5582 33.27 64.1944 32.7392C64.7738 32.257 65.2884 31.7546 65.7422 31.2278C65.4707 31.6695 65.2033 32.0747 64.9359 32.4555ZM60.4059 33.274C61.5039 31.9815 62.9221 31.1225 64.2916 30.2878C64.7779 29.992 65.2762 29.6881 65.7584 29.368C66.2122 29.0641 66.6174 28.7683 66.978 28.4725C66.6701 28.9993 66.3622 29.4774 66.0502 29.9272C65.4788 30.7456 64.7981 31.4912 64.0323 32.1517C63.3475 32.7392 62.6101 33.274 61.897 33.7886C61.0947 34.368 60.26 34.9637 59.4942 35.6565C59.1214 35.9888 58.7892 36.3251 58.4893 36.6695C58.8945 35.6444 59.5023 34.3397 60.4059 33.274ZM54.2064 40.0367L54.1173 39.9232C53.6149 39.283 53.0436 38.4929 52.6465 37.5123C52.3102 36.6817 52.063 35.7052 51.905 34.6071C51.8442 34.1938 51.7996 33.7603 51.7632 33.3024C51.9171 33.9102 52.1238 34.5139 52.3871 35.1258C52.6951 35.8348 53.0476 36.5115 53.392 37.1679L53.5865 37.5366C54.1619 38.6387 54.7413 39.8219 55.0411 41.1671C54.7737 40.7538 54.4779 40.377 54.2064 40.0367ZM55.0776 39.4289C54.7291 38.5293 54.2915 37.6906 53.8661 36.8802C53.4893 36.163 53.1003 35.4175 52.7802 34.6395C52.4236 33.7684 52.1724 32.8445 52.0387 31.8964C51.9657 31.3858 51.9131 30.851 51.8807 30.2797C52.0549 30.6646 52.2575 31.0617 52.4965 31.479C52.7599 31.9369 53.0476 32.3907 53.3272 32.8324C54.1133 34.0723 54.9317 35.3567 55.3005 36.9248C55.6003 38.1971 55.5638 39.5828 55.4747 40.6566C55.3693 40.2514 55.2356 39.8462 55.0776 39.4289ZM51.6862 47.0262L51.5687 46.9533C50.9082 46.544 50.1424 46.0294 49.5062 45.3284C48.9673 44.7369 48.4852 44.0116 48.0638 43.1769C47.9138 42.8811 47.7761 42.5731 47.6383 42.2409C47.9341 42.6825 48.2826 43.108 48.6837 43.5294C49.1618 44.0278 49.6805 44.4978 50.187 44.9516L50.4706 45.2069C51.2972 45.9524 52.144 46.7547 52.764 47.7312C52.4074 47.4719 52.0306 47.2369 51.6862 47.0262ZM52.4196 46.3738C51.8523 45.7296 51.2121 45.1502 50.5881 44.591C50.037 44.0967 49.4657 43.5821 48.9552 43.031C48.3839 42.4111 47.9138 41.7304 47.5532 41.0051C47.3668 40.6282 47.1926 40.2352 47.0265 39.8097C47.2899 40.0772 47.5856 40.3487 47.926 40.6282C48.3028 40.9402 48.704 41.2441 49.0889 41.5359C50.1829 42.3624 51.3093 43.2215 52.0589 44.3884C52.6546 45.3203 52.9504 46.4103 53.1165 47.2693C52.9098 46.9695 52.6829 46.6737 52.4196 46.3738ZM50.3571 54.8058L50.2599 54.7451C49.7169 54.4047 49.0929 53.9793 48.5743 53.3958C48.1367 52.9014 47.7437 52.2977 47.4033 51.5967C47.3061 51.3941 47.2129 51.1834 47.1197 50.9646C47.3425 51.2888 47.5937 51.6008 47.8855 51.9128C48.2785 52.3301 48.704 52.7232 49.1173 53.1L49.3482 53.3107C50.0046 53.9104 50.6732 54.5587 51.1716 55.3447C50.9001 55.1421 50.6165 54.9679 50.3571 54.8058ZM50.973 54.2548C50.5111 53.7159 49.9844 53.2337 49.4738 52.7677C49.0241 52.3544 48.554 51.929 48.1407 51.463C47.6788 50.9484 47.2939 50.3771 47.0022 49.7693C46.8603 49.4776 46.7307 49.1696 46.6051 48.8414C46.8077 49.044 47.0305 49.2547 47.2858 49.4654C47.5937 49.7248 47.9219 49.98 48.238 50.2231C49.1335 50.912 50.0573 51.6251 50.661 52.6016C51.127 53.3512 51.358 54.2264 51.4917 54.9355C51.3377 54.7086 51.1675 54.4817 50.973 54.2548ZM60.5274 52.711C59.6401 53.0433 58.7973 53.2378 58.0193 53.2945C57.0995 53.3593 56.2446 53.1851 55.5314 53.0068L55.4058 52.9744C55.029 52.8812 54.6157 52.7758 54.1862 52.707C55.3167 52.4031 56.4593 52.4193 57.5452 52.4598C57.6627 52.4638 57.7802 52.4679 57.9018 52.476H57.9139C58.5622 52.5044 59.2349 52.5327 59.9075 52.5044C60.4788 52.4801 61.0177 52.4071 61.5323 52.2896C61.1879 52.4476 60.8516 52.5894 60.5274 52.711ZM62.4764 51.4225C61.7106 51.7102 60.9042 51.8844 60.0898 51.9371C59.3605 51.9857 58.623 51.9533 57.9099 51.9209C57.1076 51.8885 56.277 51.852 55.4423 51.9249C55.0574 51.9574 54.7008 52.0141 54.3523 52.0911C55.106 51.5522 56.1108 50.9241 57.1887 50.6486C58.5258 50.3082 59.867 50.4906 61.1636 50.6648C61.6214 50.7256 62.0955 50.7904 62.5615 50.8309C62.9829 50.8674 63.3719 50.8795 63.7365 50.8714C63.2989 51.0902 62.8856 51.2685 62.4764 51.4225Z" fill="#1B3764"/>
<path d="M32.0744 58.5868C32.5646 58.9596 33.0914 59.3527 33.6425 59.7092C34.777 60.4467 35.7211 60.8356 36.6125 60.9288C37.1311 60.9856 37.6295 60.9126 38.136 60.8275C38.6101 60.7465 39.0396 60.6898 39.4731 60.7627C39.5056 60.9775 39.538 61.1922 39.5704 61.407C39.8135 62.9791 40.1093 64.5553 40.5996 66.0788C41.0048 67.3309 41.5518 68.5383 42.2649 69.6202C42.9821 70.7061 43.8776 71.6502 44.9027 72.3309C44.9756 72.3795 45.0769 72.3876 45.1418 72.335C45.1985 72.2904 45.1985 72.2012 45.1296 72.1526C44.9999 72.0675 44.8703 71.9743 44.7447 71.8811C43.7682 71.1477 42.9335 70.1631 42.2771 69.057C41.5923 67.9062 41.0898 66.638 40.7211 65.3373C40.478 64.4743 40.2876 63.595 40.1295 62.7157C40.3889 62.4645 40.713 62.2862 41.0777 62.0958C41.4707 61.8891 41.8557 61.6825 42.1879 61.3867C42.7592 60.8762 43.2211 60.1671 43.6385 59.1541C43.8411 58.6638 44.0072 58.1614 44.1612 57.6914C44.1814 57.6265 44.1531 57.5577 44.0964 57.5252C44.0437 57.4969 43.9464 57.4969 43.9019 57.5658C43.5007 58.1938 42.8686 58.6071 42.2568 59.0082L42.2487 59.0123C42.0988 59.1095 41.9448 59.2108 41.7989 59.3121C41.4748 59.535 41.0655 59.8389 40.7454 60.236C40.4132 60.6452 40.1741 61.1558 39.9958 61.8446C39.9918 61.8527 39.9918 61.8608 39.9918 61.8689C39.927 61.4677 39.8662 61.0666 39.8054 60.6655C39.6879 59.8753 39.5744 59.0812 39.4529 58.2911L39.465 58.2343C39.7932 57.9061 40.2065 57.6792 40.6766 57.4402C41.1587 57.193 41.6206 56.9458 42.0299 56.5893C42.7268 55.9815 43.2941 55.1387 43.8087 53.9353C44.0558 53.3518 44.2665 52.7602 44.457 52.201C44.4691 52.1686 44.4691 52.1322 44.457 52.0997C44.4448 52.0673 44.4205 52.039 44.3881 52.0228C44.3273 51.9903 44.2139 51.9944 44.1652 52.0673C43.6709 52.8169 42.897 53.3153 42.1514 53.7934C41.9651 53.915 41.7746 54.0366 41.5923 54.1581C41.1993 54.4255 40.7009 54.7902 40.3078 55.2602C39.9026 55.7465 39.6109 56.3542 39.384 57.1687C39.3597 57.2538 39.3394 57.3389 39.3151 57.4239C39.23 56.9377 39.1409 56.4555 39.0355 55.9734C38.9261 55.4669 38.8046 54.9644 38.6628 54.4661L38.6587 54.4255C38.8775 53.9474 39.2057 53.5746 39.5825 53.1694C39.9675 52.7562 40.3362 52.3388 40.6239 51.8121C41.1182 50.9125 41.4221 49.7618 41.5882 48.1937C41.6693 47.436 41.7057 46.6742 41.7382 45.9571C41.7422 45.876 41.6976 45.8071 41.6328 45.7828C41.5639 45.7585 41.4545 45.7909 41.4302 45.8963C41.1628 46.9214 40.5712 47.7075 39.9999 48.4692C39.8581 48.6597 39.7122 48.8542 39.5744 49.0446C39.2786 49.462 38.9059 50.0252 38.6628 50.6856C38.4115 51.3663 38.2981 52.1646 38.3021 53.1938C38.3021 53.2343 38.3021 53.2748 38.3021 53.3153C38.1239 52.8129 37.9253 52.3145 37.7025 51.8323C37.6984 51.7999 37.6822 51.7675 37.6619 51.7432L37.6579 51.7391C37.6498 51.727 37.6457 51.7108 37.6376 51.6986C37.5444 51.3177 37.4431 50.949 37.3337 50.5924C37.0258 49.5916 36.6571 48.8461 36.183 48.2383C35.7211 47.6508 35.1538 47.1888 34.7122 46.8525C34.5055 46.6986 34.2948 46.5405 34.0882 46.3947C33.2413 45.7828 32.3702 45.1507 31.7745 44.2188C31.7137 44.1256 31.5922 44.1175 31.5314 44.154C31.4706 44.1904 31.4463 44.2674 31.4747 44.3444C31.7259 45.0292 32.0014 45.7626 32.3175 46.4798C32.9698 47.9628 33.6465 49.0081 34.4488 49.7699C34.9147 50.2156 35.4374 50.5357 35.9723 50.8518C36.495 51.1597 36.9569 51.4474 37.3378 51.8607V51.8688C37.3702 51.8971 37.3986 51.9296 37.4188 51.9701C37.4431 52.0228 37.4674 52.0795 37.4918 52.1322C38.055 53.3883 38.4359 54.7213 38.7235 56.0666C38.6506 55.945 38.5736 55.8275 38.4966 55.71C37.9334 54.8469 37.4026 54.2432 36.8191 53.8097C36.2519 53.3883 35.6319 53.1208 35.1579 52.9344C34.9391 52.8493 34.7122 52.7683 34.4893 52.6873C33.5898 52.3631 32.6619 52.0309 31.8799 51.3177C31.7988 51.2448 31.6894 51.2813 31.6489 51.3339C31.6084 51.3907 31.6084 51.4717 31.657 51.5365C32.0784 52.116 32.5282 52.7318 33.0104 53.3234C34.0071 54.543 34.8945 55.3372 35.8021 55.8194C36.3329 56.103 36.8678 56.2489 37.4148 56.3826C37.9496 56.5163 38.4277 56.65 38.8735 56.9256L38.9099 56.9904C39.1044 58.056 39.2584 59.1257 39.4164 60.1914C39.2584 60.0455 39.1004 59.9037 38.9464 59.7741C38.2657 59.1987 37.67 58.8462 37.0663 58.6719C36.4828 58.5018 35.8872 58.4936 35.4334 58.5058C35.2227 58.5099 35.0079 58.522 34.8013 58.5342C33.9504 58.5828 33.0792 58.6274 32.2445 58.2789C32.1595 58.2424 32.0703 58.3154 32.046 58.3842C31.9933 58.4653 32.0136 58.5423 32.0744 58.5868ZM33.7843 53.7853C34.0801 54.0163 34.3961 54.2229 34.7446 54.4134C35.1457 54.6362 35.559 54.8226 35.9601 55.005L36.187 55.1063C36.8597 55.4142 37.5647 55.7586 38.1968 56.2813C37.9213 56.1881 37.6457 56.1192 37.3945 56.0585L37.3094 56.0382C36.8394 55.9207 36.2843 55.7586 35.7373 55.4385C35.2754 55.1711 34.8013 54.8024 34.3272 54.3445C34.1489 54.1743 33.9707 53.9879 33.7843 53.7853ZM38.213 55.8923C38.0185 55.7424 37.8078 55.6006 37.5809 55.4628C37.0906 55.167 36.576 54.932 36.0817 54.7051C35.64 54.5025 35.1862 54.2959 34.7527 54.0487C34.2664 53.7691 33.8126 53.4247 33.4034 53.0276C33.1846 52.8129 32.9658 52.5819 32.7389 52.3267C32.9617 52.4442 33.2008 52.5576 33.4682 52.667C33.76 52.7886 34.0598 52.8939 34.3515 52.9993C35.1741 53.2951 36.025 53.599 36.7705 54.2027C37.3743 54.6889 37.8645 55.3534 38.213 55.8923ZM32.9577 47.1281C33.2048 47.4644 33.4844 47.7845 33.8045 48.0965C34.157 48.4409 34.5339 48.761 34.8985 49.0689L34.9147 49.0811C34.9796 49.1338 35.0404 49.1864 35.1052 49.2432C35.7211 49.7658 36.3572 50.3372 36.8556 51.0503C36.5882 50.8599 36.3086 50.6978 36.0533 50.5479L35.9723 50.4992C35.5144 50.2278 34.9796 49.8834 34.5055 49.4012C34.1044 48.9919 33.7275 48.4854 33.375 47.8939C33.2292 47.6548 33.0914 47.3995 32.9577 47.1281ZM36.9974 50.6978C36.8353 50.479 36.653 50.2642 36.4464 50.0495C36.025 49.6038 35.559 49.2107 35.1092 48.8299C34.7081 48.4895 34.2989 48.141 33.918 47.7602C33.4966 47.3347 33.1279 46.8566 32.828 46.346C32.6619 46.0624 32.5039 45.7666 32.3458 45.4384C32.5484 45.6329 32.7713 45.8274 33.0266 46.0259C33.298 46.2366 33.5776 46.4433 33.8532 46.6418C34.6271 47.201 35.4253 47.7804 36.0169 48.5989C36.5031 49.2675 36.8029 50.0697 36.9974 50.6978ZM38.8289 53.526C39.072 52.744 39.4691 52.0673 39.8621 51.4393L39.9918 51.2286C40.2268 50.8558 40.4699 50.4709 40.6847 50.0657C40.871 49.7172 41.021 49.3688 41.1425 49.0162C41.098 49.2877 41.0493 49.543 40.9967 49.7861C40.8508 50.4304 40.6563 50.9976 40.4213 51.4758C40.1377 52.039 39.7649 52.4806 39.4367 52.8372L39.3799 52.902C39.2017 53.0884 39.0072 53.2951 38.8289 53.526ZM38.5979 53.2019C38.5979 52.5617 38.6384 51.7351 38.8775 50.9976C39.1692 50.0859 39.7163 49.3647 40.2389 48.6637C40.4253 48.4166 40.6158 48.1613 40.7941 47.902C40.9561 47.667 41.098 47.4401 41.2155 47.2213C41.1668 47.5616 41.1101 47.8736 41.0453 48.1735C40.9197 48.7286 40.7292 49.2675 40.478 49.7658C40.2511 50.2116 39.9837 50.633 39.7284 51.0422C39.4367 51.5041 39.1368 51.9782 38.8897 52.4968C38.7762 52.7359 38.679 52.9709 38.5979 53.2019ZM39.8662 57.5293C40.2795 56.9782 40.8224 56.5406 41.3451 56.1395L41.5234 56.0017C41.8435 55.7586 42.1758 55.5033 42.4837 55.2319C42.743 55.0009 42.9699 54.7618 43.1644 54.5147C43.0672 54.7051 42.9699 54.8794 42.8686 55.0495C42.5809 55.5277 42.2568 55.9328 41.9124 56.257C41.5031 56.6419 41.025 56.9094 40.6117 57.1241L40.5388 57.1606C40.3281 57.27 40.0931 57.3915 39.8662 57.5293ZM39.6838 57.2376C39.8216 56.7351 40.0485 56.103 40.4456 55.5803C40.944 54.9239 41.6531 54.4701 42.3419 54.0285C42.585 53.8745 42.8362 53.7124 43.0753 53.5463C43.29 53.3964 43.4764 53.2505 43.6466 53.1046C43.5291 53.3477 43.4075 53.5746 43.2779 53.7894C43.0307 54.2027 42.7187 54.5836 42.35 54.9239C42.0218 55.2278 41.6571 55.5033 41.3087 55.7748C40.9116 56.0787 40.5023 56.3907 40.1376 56.7432C39.9675 56.9053 39.8176 57.0714 39.6838 57.2376ZM40.4496 62.1161C40.7819 61.6744 41.2114 61.3219 41.6287 60.9977L41.7746 60.8843C42.038 60.6817 42.3095 60.4669 42.5607 60.24C42.7471 60.0698 42.9132 59.8956 43.0591 59.7133C42.9942 59.8389 42.9294 59.9604 42.8605 60.0739C42.6255 60.475 42.3662 60.8154 42.0826 61.0869C41.7463 61.411 41.3573 61.6339 41.021 61.8081L40.9602 61.8405C40.7981 61.9216 40.6239 62.0148 40.4496 62.1161ZM40.2835 61.8608C40.397 61.4475 40.5753 60.941 40.8873 60.5156C41.2924 59.9645 41.8759 59.5877 42.4351 59.2189C42.6336 59.0893 42.8403 58.9556 43.0348 58.8137C43.1968 58.7003 43.3387 58.5868 43.4683 58.4734C43.3792 58.6638 43.286 58.8381 43.1887 59.0042C42.9861 59.3486 42.7349 59.6687 42.4351 59.9523C42.1677 60.2076 41.8678 60.4386 41.5801 60.6614C41.256 60.9126 40.9197 61.176 40.6198 61.4718C40.4983 61.6096 40.3848 61.7311 40.2835 61.8608ZM34.4528 59.8186C34.7527 59.9159 35.0687 59.9807 35.4091 60.0212C35.8062 60.0698 36.2073 60.0861 36.5922 60.0982H36.6003C36.6692 60.1023 36.7422 60.1023 36.811 60.1063C37.4553 60.1306 38.136 60.1792 38.7924 60.4102C38.5371 60.4305 38.2859 60.471 38.059 60.5115L37.982 60.5237C37.5485 60.5966 37.0339 60.6574 36.495 60.5763C36.0371 60.5074 35.5468 60.3494 35.0363 60.1104C34.8418 60.0293 34.6514 59.928 34.4528 59.8186ZM33.2129 58.8745C33.4277 58.8988 33.6587 58.9069 33.9099 58.9069C34.1895 58.9069 34.4731 58.8907 34.7486 58.8745C35.5266 58.83 36.3289 58.7854 37.1068 59.0528C37.7349 59.2676 38.3021 59.6849 38.7235 60.0415C38.5209 59.9807 38.3102 59.928 38.0833 59.8916C37.5931 59.8065 37.0987 59.7903 36.6206 59.77C36.1951 59.7538 35.7575 59.7376 35.328 59.6768C34.8459 59.6079 34.3799 59.4661 33.9382 59.2595C33.6992 59.146 33.4601 59.0204 33.2129 58.8745Z" fill="#1B3764"/>
</svg>
